<?xml version="1.0" encoding="UTF-8"?>
<svg version="1.1" xmlns="http://www.w3.org/2000/svg" width="1024" height="1024">
<path d="M0 0 C337.92 0 675.84 0 1024 0 C1024 337.92 1024 675.84 1024 1024 C686.08 1024 348.16 1024 0 1024 C0 686.08 0 348.16 0 0 Z " fill="#060909" transform="translate(0,0)"/>
<path d="M0 0 C3.34525718 1.58484791 5.54300969 3.30872954 8.15234375 5.95703125 C8.92900391 6.74013672 9.70566406 7.52324219 10.50585938 8.33007812 C11.30830078 9.14927734 12.11074219 9.96847656 12.9375 10.8125 C13.73607422 11.62009766 14.53464844 12.42769531 15.35742188 13.25976562 C16.90153913 14.8217931 18.44376779 16.3856903 19.98388672 17.95166016 C22.30945326 20.31439971 24.65169952 22.65986752 27 25 C29.93420372 27.92925565 32.85967968 30.86678838 35.77734375 33.8125 C37.16401057 35.20838493 38.55073047 36.60421711 39.9375 38 C40.62779297 38.69867188 41.31808594 39.39734375 42.02929688 40.1171875 C45.08645816 43.1888377 48.11888181 46.16459593 51.50390625 48.875 C52.32761719 49.57625 53.15132813 50.2775 54 51 C54 51.66 54 52.32 54 53 C54.66 53 55.32 53 56 53 C56 53.66 56 54.32 56 55 C56.66 55 57.32 55 58 55 C62.76744186 59.30232558 62.76744186 59.30232558 64 63 C64.66 63 65.32 63 66 63 C67.62109375 64.6796875 67.62109375 64.6796875 69.4375 66.875 C71.58400884 69.46193722 73.16776562 71.11184374 76 73 C76 73.66 76 74.32 76 75 C77.485 75.495 77.485 75.495 79 76 C80.68359375 77.70703125 80.68359375 77.70703125 82.4375 79.8125 C84.29717253 82.01597754 86.08776585 84.08275066 88.1875 86.0625 C90.1954599 88.20893989 91.46854026 90.49739931 92.77734375 93.12109375 C94.50894757 95.7821207 96.73659391 97.771611 99 100 C100.04874003 101.04109549 101.09699803 102.0826767 102.14485168 103.12466431 C103.33586169 104.30662523 104.52691981 105.48853768 105.71801758 106.67041016 C112.35775141 113.26123675 118.9899291 119.85961328 125.61780262 126.4623661 C129.62433043 130.45317209 133.63364242 134.44109953 137.64916992 138.42285156 C141.53881487 142.27999714 145.42117074 146.14434044 149.29849815 150.01386642 C150.77792285 151.48773785 152.25999023 152.95896143 153.74469948 154.42750931 C155.81310302 156.47425969 157.87205242 158.5300802 159.92895508 160.58837891 C160.54759933 161.19623734 161.16624359 161.80409576 161.80363464 162.43037415 C166 166.65783578 166 166.65783578 166 170 C166.59070943 170.2659475 167.18141886 170.53189501 167.79002857 170.80590153 C170.05721057 172.03091219 171.54200239 173.29050245 173.35954285 175.10557556 C174.32483665 176.0624099 174.32483665 176.0624099 175.30963135 177.03857422 C176.35168732 178.08670288 176.35168732 178.08670288 177.41479492 179.15600586 C178.1550441 179.8927504 178.89529327 180.62949493 179.65797424 181.38856506 C182.10386231 183.82564917 184.54236065 186.2699782 186.98046875 188.71484375 C188.67600216 190.40903027 190.37183239 192.10291978 192.06794739 193.79652405 C195.62107224 197.34669956 199.17055215 200.90046973 202.7175293 204.45678711 C207.27068379 209.02134459 211.83276829 213.57685443 216.39760876 218.12972164 C219.9004092 221.62530585 223.39844533 225.12562632 226.89504433 228.6274128 C228.57574837 230.30945354 230.25794633 231.99000289 231.94164085 233.66905022 C234.29042261 236.0127698 236.63272564 238.36277568 238.97338867 240.71459961 C239.67416534 241.41132782 240.37494202 242.10805603 241.09695435 242.82589722 C241.73202408 243.4666066 242.36709381 244.10731598 243.02140808 244.7674408 C243.85290768 245.60007147 243.85290768 245.60007147 244.70120525 246.44952297 C246 248 246 248 247 251 C204.86650721 257.41126916 204.86650721 257.41126916 189.96777344 247.39941406 C178.41785026 238.43197427 168.82465768 226.95132349 159.94122314 215.40466309 C154.73754086 208.95867426 149.12465791 202.98260481 143.24804688 197.15039062 C142.13684227 196.04137642 142.13684227 196.04137642 141.00318909 194.90995789 C139.40783183 193.31838136 137.81132125 191.72796019 136.21376038 190.13859558 C133.68009588 187.61779209 131.14965365 185.09379285 128.61999512 182.56896973 C123.24947091 177.20982704 117.87502946 171.85462357 112.5 166.5 C106.26735485 160.29101661 100.03635969 154.080396 93.80958557 147.86552429 C91.32624189 145.38862513 88.83988703 142.91477659 86.35339355 140.44104004 C84.81943092 138.91071265 83.28561004 137.38024315 81.75195312 135.84960938 C81.0681105 135.17093307 80.38426788 134.49225677 79.67970276 133.79301453 C75.79394869 129.90768359 72.09668663 125.91422561 68.51683235 121.74478531 C66.40780185 119.31880499 64.16938177 117.03972649 61.8984375 114.765625 C60.99609375 113.86199219 60.09375 112.95835937 59.1640625 112.02734375 C58.24367188 111.11082031 57.32328125 110.19429687 56.375 109.25 C55.446875 108.31800781 54.51875 107.38601563 53.5625 106.42578125 C52.66273438 105.52730469 51.76296875 104.62882813 50.8359375 103.703125 C50.02688965 102.89520508 49.2178418 102.08728516 48.38427734 101.25488281 C46.02038279 99.01927662 43.54685226 97.02184095 41 95 C39.99063932 94.00944914 38.98869123 93.0111823 38 92 C38.01198331 92.59100337 38.02396662 93.18200674 38.03631306 93.7909193 C38.32439431 108.22367144 38.53900342 122.65616576 38.67355824 137.09115887 C38.74037342 144.07232604 38.83131974 151.05156534 38.98071289 158.03149414 C39.1249749 164.77494684 39.19981407 171.51640165 39.23340416 178.26130104 C39.25732236 180.827049 39.30403299 183.3926944 39.37449074 185.95758629 C39.96010808 208.17074446 39.96010808 208.17074446 33.50421429 215.22304249 C31.31111689 217.25807455 29.0381566 219.07712434 26.60307884 220.8132267 C23.09955083 223.40691915 20.40526254 226.3921062 18 230 C17.34 230 16.68 230 16 230 C16 230.66 16 231.32 16 232 C15.34 232 14.68 232 14 232 C14 232.66 14 233.32 14 234 C13.38125 234.433125 12.7625 234.86625 12.125 235.3125 C9.60686633 237.31219438 8.97814895 238.98404073 8 242 C7.34 242 6.68 242 6 242 C5.505 243.98 5.505 243.98 5 246 C3.35 246.33 1.7 246.66 0 247 C-1.2995552 223.48701477 -1.15636969 199.96134887 -1.12857056 176.42123795 C-1.12497181 172.97299363 -1.12337355 169.52475354 -1.12231445 166.07650757 C-1.10133106 110.71499833 -0.58250699 55.35806441 0 0 Z " fill="#10FAFA" transform="translate(416,433)"/>
<path d="M0 0 C42.84997025 -6.60626745 42.84997025 -6.60626745 59.64305878 5.0062561 C70.90083612 13.78690124 80.40774627 24.52526617 89.78814697 35.22796631 C93.92657655 39.88781647 98.22184333 44.39831938 102.50390625 48.92578125 C111.77325878 58.78079497 120.8966752 68.76968055 129.7371397 79.01274967 C133.75322271 83.65806602 137.93210146 88.07534478 142.28051758 92.40991211 C142.97083069 93.10197754 143.6611438 93.79404297 144.37237549 94.50708008 C146.62727263 96.76633596 148.88575667 99.02196499 151.14453125 101.27734375 C152.72171896 102.85520576 154.29875826 104.43321613 155.87565613 106.0113678 C159.16637748 109.30355761 162.4588864 112.59394621 165.75268555 115.88305664 C169.98081074 120.10545682 174.20439287 124.3323685 178.42667103 128.56061459 C181.67525585 131.81280405 184.92620756 135.06261907 188.17789268 138.31170845 C189.73720451 139.87035219 191.29577108 141.42974186 192.8535862 142.98988152 C195.02213773 145.16096099 197.19384856 147.32882902 199.36645508 149.49584961 C200.33502693 150.46745781 200.33502693 150.46745781 201.32316589 151.45869446 C204.37121741 154.61097388 204.37121741 154.61097388 208 157 C207.98893848 156.1065815 207.98893848 156.1065815 207.9776535 155.19511414 C207.80072252 140.68025669 207.66847099 126.16546307 207.58550262 111.64978027 C207.54430918 104.62989494 207.48818393 97.61073086 207.39648438 90.59130859 C207.30801073 83.81557398 207.26170934 77.04058869 207.24098206 70.26431274 C207.2262135 67.68067642 207.19737307 65.09708055 207.15415955 62.51376343 C207.09597632 58.89109148 207.08809174 55.27150239 207.09179688 51.6484375 C207.06303467 50.5831633 207.03427246 49.5178891 207.00463867 48.42033386 C207.0689675 42.59742644 207.81065948 39.52806945 211.9317627 35.27197266 C215.58212068 32 215.58212068 32 218 32 C218.0825 31.4225 218.165 30.845 218.25 30.25 C219.2233811 27.3298567 220.67613275 25.98212207 223 24 C223.99 23.67 224.98 23.34 226 23 C227.54436126 21.47655147 227.54436126 21.47655147 229.0625 19.5625 C232.02361233 16.07623313 235.10327347 12.76024024 238.3125 9.5 C239.15425781 8.6440625 239.99601563 7.788125 240.86328125 6.90625 C243 5 243 5 245 5 C245 85.19 245 165.38 245 248 C240.48545178 244.13038724 236.16929248 240.31539144 231.9921875 236.12158203 C231.15895966 235.29098267 231.15895966 235.29098267 230.30889893 234.44360352 C228.49509662 232.63415935 226.68492661 230.82113276 224.875 229.0078125 C223.60154545 227.73503282 222.3279426 226.46240152 221.05419922 225.18991089 C218.39322909 222.53040965 215.73406186 219.86912238 213.07617188 217.20654297 C209.68722106 213.81190122 206.29380768 210.42176166 202.89901733 207.03296089 C200.27021501 204.40779104 197.64382246 201.78022065 195.01812744 199.15194321 C193.7686683 197.90182191 192.51847959 196.65242933 191.26751709 195.40381241 C189.51183586 193.65070145 187.75944349 191.89436367 186.0078125 190.13720703 C185.50163391 189.63305267 184.99545532 189.12889832 184.47393799 188.60946655 C181.72284161 185.84245803 179.10487257 183.00089946 176.55163574 180.0496521 C173.23802982 176.2280723 169.75718876 172.62810435 166.16601562 169.06835938 C165.52274826 168.42655228 164.8794809 167.78474518 164.21672058 167.12348938 C162.83417528 165.74471885 161.45047714 164.36710349 160.0657196 162.99055481 C157.86809039 160.80581418 155.67370966 158.61785574 153.48010254 156.42907715 C148.82288161 151.78322435 144.16173905 147.14131864 139.5 142.5 C134.09340422 137.11708742 128.68847366 131.73252443 123.2877655 126.34370422 C121.13681369 124.19918491 118.98284828 122.05772516 116.82873535 119.91638184 C115.49700216 118.58828469 114.16541115 117.26004496 112.83398438 115.93164062 C112.24364914 115.34647171 111.6533139 114.7613028 111.04508972 114.15840149 C108.08318325 111.19686573 105.24724449 108.17449682 102.50694275 105.00595093 C99.17857738 101.15921197 95.67084356 97.54854356 92.05493164 93.97314453 C91.40042023 93.32169968 90.74590881 92.67025482 90.07156372 91.99906921 C88.66606221 90.60066198 87.25943184 89.20338854 85.85176277 87.80716324 C83.62629872 85.59922155 81.40451086 83.38764028 79.18370056 81.17501831 C72.87469928 74.89037185 66.55993077 68.61154286 60.2409668 62.33691406 C56.36431777 58.48696125 52.49248374 54.63222107 48.6236248 50.77444077 C47.14903657 49.30607493 45.67255188 47.8396111 44.19417 46.37506485 C42.13802975 44.33802193 40.08801356 42.29500289 38.03930664 40.25048828 C37.42380447 39.64374771 36.80830231 39.03700714 36.17414856 38.41188049 C32 34.22789906 32 34.22789906 32 32 C31.42024414 31.74404053 30.84048828 31.48808105 30.24316406 31.22436523 C26.10829801 28.96747002 23.05058962 25.3776682 19.75 22.0625 C19.00492187 21.33353516 18.25984375 20.60457031 17.4921875 19.85351562 C16.78835938 19.15033203 16.08453125 18.44714844 15.359375 17.72265625 C14.71452148 17.08078369 14.06966797 16.43891113 13.40527344 15.77758789 C12 14 12 14 12 11 C11.12408203 10.85691406 11.12408203 10.85691406 10.23046875 10.7109375 C7.52016452 9.84705769 6.28637877 8.6545413 4.3125 6.625 C3.71050781 6.01914062 3.10851562 5.41328125 2.48828125 4.7890625 C1 3 1 3 0 0 Z " fill="#10FAFA" transform="translate(378,357)"/>
<path d="M0 0 C8.15278059 4.73078275 14.19118242 11.96090658 20.28515625 19.05859375 C24.16134811 23.44690208 28.11106264 27.81564681 33.08551979 30.93460369 C35.14202079 32.66257683 35.90804655 33.62426319 36.55234599 36.25697577 C36.75895442 39.18754972 36.77035126 42.06572982 36.7215271 45.00337219 C36.72665365 46.12653766 36.7317802 47.24970313 36.7370621 48.40690392 C36.74696199 52.17850644 36.71391566 55.94851521 36.68115234 59.7199707 C36.67946028 62.42021803 36.68014475 65.1203671 36.68380737 67.82060242 C36.68695297 73.63801448 36.6681342 79.45502267 36.63438034 85.27233315 C36.58561017 93.68310683 36.56999092 102.09368529 36.56245239 110.50458505 C36.54932179 124.15070972 36.50939545 137.79661915 36.45263672 151.44262695 C36.3975595 164.69814985 36.3550905 177.95361429 36.32958984 191.20922852 C36.3280135 192.02635169 36.32643716 192.84347486 36.32481305 193.68535934 C36.31698281 197.78464132 36.30940056 201.88392372 36.30194163 205.98320639 C36.23974493 239.98896035 36.13406931 273.99445379 36 308 C32.28075015 306.26677165 29.93581733 304.14050872 27.0625 301.1875 C26.22847656 300.33542969 25.39445312 299.48335937 24.53515625 298.60546875 C23.28025391 297.31576172 23.28025391 297.31576172 22 296 C20.79150391 294.80503906 20.79150391 294.80503906 19.55859375 293.5859375 C16.07896882 290.06912574 12.7712408 286.40429658 9.4609375 282.72851562 C8.70683594 281.9019043 8.70683594 281.9019043 7.9375 281.05859375 C7.49277344 280.56673584 7.04804688 280.07487793 6.58984375 279.56811523 C4.97820389 277.83753978 4.97820389 277.83753978 2.4382143 276.58218765 C-1.37978955 272.53873569 -0.67540334 268.48405021 -0.60127258 263.11688232 C-0.60554471 261.99457128 -0.60981683 260.87226023 -0.61421841 259.71593976 C-0.62247834 255.94141012 -0.59491173 252.16798258 -0.56762695 248.39355469 C-0.56621713 245.69346608 -0.56678678 242.99344574 -0.56983948 240.29336548 C-0.57246226 234.47325911 -0.55676449 228.65343283 -0.52865028 222.83339691 C-0.48802846 214.41863424 -0.47499445 206.00400711 -0.46871033 197.58915702 C-0.45776504 183.93696538 -0.42448458 170.28492306 -0.37719727 156.6328125 C-0.33130768 143.37045031 -0.29591285 130.10812867 -0.2746582 116.84570312 C-0.27334459 116.02831723 -0.27203097 115.21093134 -0.27067754 114.36877617 C-0.26415239 110.26822344 -0.25783385 106.16767042 -0.25161803 102.06711721 C-0.19977775 68.04463653 -0.11170619 34.02233656 0 0 Z " fill="#10FBFA" transform="translate(356,374)"/>
<path d="M0 0 C4.28059341 1.98979182 6.67656359 4.74466573 9.72704011 8.32678252 C12.96170785 12.01361373 16.36881097 15.20496744 20.15080547 18.33080578 C28.8948151 25.79506669 36.79271602 32.60430067 38.33238566 44.53133738 C38.67660193 50.52186586 38.57131228 56.45045468 38.3840332 62.44458008 C38.37809491 65.13774603 38.38054052 67.8297149 38.39332581 70.5227356 C38.40423974 76.27687909 38.33944075 82.02595116 38.22033119 87.77881813 C38.04826084 96.09513631 37.99483514 104.40905004 37.96858337 112.7269549 C37.92283431 126.22682473 37.78367806 139.72400133 37.58422852 153.22241211 C37.39090597 166.31993308 37.24254167 179.41671762 37.15356445 192.51538086 C37.14804726 193.32531346 37.14253007 194.13524606 37.13684569 194.96972207 C37.10943614 199.03368563 37.08289917 203.09765432 37.05679572 207.16162646 C36.83975844 240.7763694 36.47048326 274.38785223 36 308 C32.9255676 306.54074712 31.14956256 305.27836628 29 302.625 C25.78469925 298.82509911 22.39064638 295.26887767 18.875 291.75 C18.12089844 290.98937256 18.12089844 290.98937256 17.3515625 290.21337891 C14.38133465 287.25389859 11.29728589 284.585117 8 282 C6.31337542 280.35353315 4.64488294 278.68816933 3 277 C2.46362921 276.55059781 1.92725842 276.10119563 1.37463397 275.63817519 C-0.45561562 273.45703495 -0.37301585 272.17722947 -0.36914349 269.35169697 C-0.37511663 268.39127343 -0.38108978 267.4308499 -0.38724393 266.44132262 C-0.3785054 265.38394132 -0.36976688 264.32656001 -0.36076355 263.23713684 C-0.36332682 262.11568022 -0.3658901 260.9942236 -0.36853105 259.83878344 C-0.37349292 256.06140512 -0.35693602 252.2844219 -0.34057617 248.50708008 C-0.33806217 245.80716192 -0.34007176 243.10725162 -0.34190369 240.40733337 C-0.34347822 234.5845559 -0.33405028 228.76187912 -0.31719017 222.93912697 C-0.29282905 214.52037855 -0.28499787 206.10167892 -0.2812262 197.68289908 C-0.27465717 184.02465575 -0.25468378 170.36646612 -0.22631836 156.70825195 C-0.19878946 143.43904896 -0.17755016 130.16986054 -0.16479492 116.90063477 C-0.16400675 116.08298615 -0.16321858 115.26533753 -0.16240653 114.42291168 C-0.15849147 110.32108815 -0.15470033 106.21926452 -0.15097082 102.11744082 C-0.11986086 68.07825494 -0.0670128 34.03913405 0 0 Z " fill="#10FAF9" transform="translate(648,358)"/>
<path d="M0 0 C0.66 0 1.32 0 2 0 C2.51046875 1.17755859 2.51046875 1.17755859 3.03125 2.37890625 C8.05320028 13.26425062 13.78827324 18.82155554 25 23 C25 23.66 25 24.32 25 25 C24.21496094 25.3403125 23.42992187 25.680625 22.62109375 26.03125 C11.73574938 31.05320028 6.17844446 36.78827324 2 48 C1.34 48 0.68 48 0 48 C-0.3403125 47.21496094 -0.680625 46.42992187 -1.03125 45.62109375 C-6.05320028 34.73574938 -11.78827324 29.17844446 -23 25 C-23 24.34 -23 23.68 -23 23 C-22.21496094 22.6596875 -21.42992187 22.319375 -20.62109375 21.96875 C-9.73574938 16.94679972 -4.17844446 11.21172676 0 0 Z " fill="#7D7D7D" transform="translate(967,944)"/>
<path d="M0 0 C3.34525718 1.58484791 5.54300969 3.30872954 8.15234375 5.95703125 C8.92900391 6.74013672 9.70566406 7.52324219 10.50585938 8.33007812 C11.30830078 9.14927734 12.11074219 9.96847656 12.9375 10.8125 C13.73607422 11.62009766 14.53464844 12.42769531 15.35742188 13.25976562 C16.90153913 14.8217931 18.44376779 16.3856903 19.98388672 17.95166016 C22.30945326 20.31439971 24.65169952 22.65986752 27 25 C29.93420372 27.92925565 32.85967968 30.86678838 35.77734375 33.8125 C37.16401057 35.20838493 38.55073047 36.60421711 39.9375 38 C40.62779297 38.69867188 41.31808594 39.39734375 42.02929688 40.1171875 C45.08645816 43.1888377 48.11888181 46.16459593 51.50390625 48.875 C52.32761719 49.57625 53.15132813 50.2775 54 51 C54 51.66 54 52.32 54 53 C54.66 53 55.32 53 56 53 C56 53.66 56 54.32 56 55 C56.66 55 57.32 55 58 55 C62.76744186 59.30232558 62.76744186 59.30232558 64 63 C64.66 63 65.32 63 66 63 C67.62109375 64.6796875 67.62109375 64.6796875 69.4375 66.875 C71.58400884 69.46193722 73.16776562 71.11184374 76 73 C76 73.66 76 74.32 76 75 C77.485 75.495 77.485 75.495 79 76 C80.68359375 77.70703125 80.68359375 77.70703125 82.4375 79.8125 C84.85689832 82.66759505 87.2971523 85.4052662 90 88 C89.67 88.66 89.34 89.32 89 90 C88.56377634 89.56285455 88.12755268 89.1257091 87.67811012 88.67531681 C77.07352124 78.04866295 66.46618064 67.42476432 55.85575294 56.80394077 C50.72474131 51.66776842 45.59467235 46.53066103 40.46679688 41.39135742 C35.99839261 36.91299949 31.52824525 32.43639019 27.05597818 27.96188968 C24.68706586 25.59167143 22.31904776 23.2205748 19.95311356 20.8473835 C17.31430806 18.20136191 14.6724334 15.55844271 12.02978516 12.91625977 C11.24216293 12.12504227 10.45454071 11.33382477 9.64305115 10.51863098 C8.92509872 9.80205322 8.2071463 9.08547546 7.46743774 8.34718323 C6.8424621 7.72128579 6.21748646 7.09538836 5.57357216 6.45052433 C4.0450126 4.90692416 4.0450126 4.90692416 2 4 C2.33 82.21 2.66 160.42 3 241 C4.32 241 5.64 241 7 241 C7.33 240.01 7.66 239.02 8 238 C8.33 238.66 8.66 239.32 9 240 C8.505 240.99 8.505 240.99 8 242 C7.34 242 6.68 242 6 242 C5.505 243.98 5.505 243.98 5 246 C3.35 246.33 1.7 246.66 0 247 C-1.2995552 223.48701477 -1.15636969 199.96134887 -1.12857056 176.42123795 C-1.12497181 172.97299363 -1.12337355 169.52475354 -1.12231445 166.07650757 C-1.10133106 110.71499833 -0.58250699 55.35806441 0 0 Z " fill="#0CC5C8" transform="translate(416,433)"/>
<path d="M0 0 C1.32 0 2.64 0 4 0 C4 0.66 4 1.32 4 2 C3.34 2 2.68 2 2 2 C1.967331 36.80393147 1.97137746 71.60764536 2.02472496 106.41155008 C2.03099037 110.5196463 2.03695152 114.62774291 2.04272461 118.73583984 C2.04387905 119.55369443 2.04503349 120.37154901 2.04622292 121.21418707 C2.06419444 134.46008748 2.05751347 147.70586673 2.04173584 160.95176502 C2.02609698 174.54140426 2.03691828 188.13083629 2.07234758 201.72043931 C2.09337768 210.1073546 2.09372224 218.4937486 2.06768017 226.880652 C2.05180294 232.63042639 2.06160751 238.37979816 2.09166015 244.12951453 C2.10824535 247.44804677 2.10965172 250.76536977 2.08818626 254.08390427 C2.06668918 257.68234908 2.08803512 261.27806728 2.12025452 264.87637329 C2.0955061 266.44933747 2.0955061 266.44933747 2.07025772 268.0540787 C2.10379014 273.37730308 2.10379014 273.37730308 4.53500259 277.93709254 C6.2884194 279.44873829 8.07203721 280.72384831 10 282 C11.686322 283.64677676 13.35032644 285.31651175 15 287 C16.52313794 288.502927 18.04807683 290.00402973 19.57421875 291.50390625 C21.27877291 293.1899757 22.98319654 294.87617713 24.6875 296.5625 C25.55439453 297.41263672 26.42128906 298.26277344 27.31445312 299.13867188 C28.14267578 299.96044922 28.97089844 300.78222656 29.82421875 301.62890625 C30.95476685 302.7437439 30.95476685 302.7437439 32.1081543 303.88110352 C33.87545921 305.86051239 34.96207992 307.5747576 36 310 C30.98343041 308.5666944 28.98547118 306.09436048 26 302 C26 301.34 26 300.68 26 300 C25.01 300 24.02 300 23 300 C22.505 298.02 22.505 298.02 22 296 C21.41734375 295.90589844 20.8346875 295.81179688 20.234375 295.71484375 C17.50106664 294.84037621 16.24160186 293.60942413 14.25 291.5625 C13.63640625 290.94503906 13.0228125 290.32757812 12.390625 289.69140625 C11 288 11 288 11 286 C10.34 286 9.68 286 9 286 C7.34375 284.3203125 7.34375 284.3203125 5.5 282.125 C3.71066742 280.00964496 1.95980876 277.95980876 0 276 C-0.31850284 274.07161134 -0.31850284 274.07161134 -0.41329861 271.68172359 C-0.45195052 270.78439418 -0.49060243 269.88706476 -0.53042561 268.96254355 C-0.57656771 267.49100125 -0.57656771 267.49100125 -0.62364197 265.98973083 C-0.66142917 264.96202212 -0.69921636 263.9343134 -0.73814863 262.875462 C-1.13396159 250.97211808 -1.0897699 239.0722849 -1.02172852 227.16430664 C-1.0115544 224.66833683 -1.00186429 222.17236501 -0.99261475 219.6763916 C-0.97182943 214.35545396 -0.94776404 209.03454759 -0.92053413 203.71364021 C-0.88117269 196.02098579 -0.84800646 188.3283139 -0.81623887 180.63562482 C-0.76450542 168.14760586 -0.70792402 155.65961394 -0.64819336 143.17163086 C-0.59026246 131.05770921 -0.53467728 118.94378044 -0.48217773 106.82983398 C-0.47892802 106.08016674 -0.4756783 105.3304995 -0.4723301 104.55811507 C-0.45603762 100.7963698 -0.43979053 97.03462433 -0.42356598 93.27287877 C-0.28941092 62.18188565 -0.14726341 31.09093392 0 0 Z " fill="#0C7178" transform="translate(646,356)"/>
<path d="M0 0 C2.475 0.99 2.475 0.99 5 2 C5 2.66 5 3.32 5 4 C5.66 4 6.32 4 7 4 C8.56958193 5.67721041 9.9480525 7.46794114 11.3671875 9.2734375 C13.11402358 11.12057039 14.67886222 12.00522667 17 13 C17 14.32 17 15.64 17 17 C17.99 17.33 18.98 17.66 20 18 C20.33 18.99 20.66 19.98 21 21 C21.9590625 21.2165625 21.9590625 21.2165625 22.9375 21.4375 C23.618125 21.623125 24.29875 21.80875 25 22 C25.29777344 22.60714844 25.59554688 23.21429688 25.90234375 23.83984375 C27.15215317 26.29943312 28.46972874 27.43093905 30.625 29.125 C32.5390625 30.6328125 32.5390625 30.6328125 34 32 C34 32.66 34 33.32 34 34 C34.66 34 35.32 34 36 34 C36.02287179 66.12803436 36.0405401 98.25606639 36.05106533 130.384107 C36.05231586 134.18746783 36.0536102 137.99082865 36.05493164 141.79418945 C36.05519395 142.5512877 36.05545626 143.30838595 36.05572652 144.08842657 C36.0600636 156.30567701 36.06794024 168.52292269 36.0771528 180.74017032 C36.08654411 193.30035926 36.09206715 205.86054573 36.09408849 218.42073804 C36.0954524 226.15486177 36.09974102 233.88897204 36.10791647 241.62309162 C36.11388744 247.57951916 36.11444523 253.53594 36.11310768 259.49237061 C36.11338026 261.91689956 36.11533511 264.34142909 36.11920547 266.76595497 C36.14110989 281.20981802 35.83996822 295.57938118 35 310 C34.01 310 33.02 310 32 310 C31.67 309.01 31.34 308.02 31 307 C31.66 307 32.32 307 33 307 C33.17014851 272.29823741 33.27167822 237.59701586 33.28166701 202.89484189 C33.28290586 198.79447766 33.2847106 194.69411385 33.28686523 190.59375 C33.28728466 189.77746928 33.28770408 188.96118856 33.28813621 188.12017205 C33.29626865 174.916908 33.35020447 161.71421046 33.42118094 148.51115176 C33.49302994 134.95533501 33.51539406 121.40008209 33.49218339 107.84409165 C33.47941848 99.48425904 33.50487487 91.12636077 33.57981863 82.76684681 C33.62756358 77.02800476 33.62707566 71.29040471 33.58934812 65.55149373 C33.56900333 62.24328009 33.5764302 58.93931991 33.62704659 55.63132858 C34.42687246 41.4538581 34.42687246 41.4538581 29.14168358 28.87830353 C26.97904178 26.7054911 24.70803934 24.90723657 22.17926311 23.18112564 C19.05438148 21.03730828 17.22328432 19.02905993 15 16 C13.35606051 14.31091193 11.68823479 12.64481575 10 11 C8.2279498 9.25123221 6.45709927 7.50124787 4.6875 5.75 C3.80449219 4.87859375 2.92148437 4.0071875 2.01171875 3.109375 C0 1 0 1 0 0 Z " fill="#0E7477" transform="translate(359,375)"/>
<path d="M0 0 C0.99 0 1.98 0 3 0 C3 0.66 3 1.32 3 2 C1.28515625 3.69140625 1.28515625 3.69140625 -0.9375 5.5625 C-2.03384766 6.49255859 -2.03384766 6.49255859 -3.15234375 7.44140625 C-3.76207031 7.95574219 -4.37179687 8.47007812 -5 9 C-6.60802351 10.60802351 -6.14155018 12.33563158 -6.15821838 14.56202698 C-6.1680072 15.54785767 -6.17779602 16.53368835 -6.18788147 17.5493927 C-6.19363693 18.63983383 -6.1993924 19.73027496 -6.20532227 20.85375977 C-6.21522186 21.99507355 -6.22512146 23.13638733 -6.23532104 24.31228638 C-6.26704628 28.10530484 -6.29173689 31.89833586 -6.31640625 35.69140625 C-6.33696627 38.31314937 -6.35796247 40.9348891 -6.37937927 43.55662537 C-6.42935578 49.76498548 -6.47427614 55.97337159 -6.51740164 62.18178266 C-6.56673173 69.24820776 -6.62166549 76.31458577 -6.67708123 83.38096535 C-6.79097735 97.920599 -6.8977997 112.46027951 -7 127 C-9.97451439 125.66120698 -12.06255966 124.1882876 -14.36627197 121.88769531 C-15.01124634 121.2483606 -15.6562207 120.60902588 -16.32073975 119.95031738 C-17.01701477 119.2499939 -17.71328979 118.54967041 -18.43066406 117.828125 C-19.17251953 117.08977417 -19.914375 116.35142334 -20.67871094 115.59069824 C-23.12940496 113.14880714 -25.57271091 110.69967251 -28.015625 108.25 C-29.71355398 106.55341779 -31.4117798 104.85713261 -33.11029053 103.16113281 C-36.66761141 99.60676101 -40.22128778 96.04879494 -43.77246094 92.48828125 C-48.33467762 87.91465292 -52.90583596 83.35008353 -57.47974014 78.78814697 C-60.98678587 75.28831081 -64.48907557 71.78374667 -67.98992157 68.27770996 C-69.67424252 66.59205091 -71.36006122 64.9078871 -73.04737091 63.22521973 C-75.39874626 60.87889659 -77.74365979 58.52630475 -80.08691406 56.171875 C-80.79128601 55.47155151 -81.49565796 54.77122803 -82.22137451 54.04968262 C-82.85506958 53.4103479 -83.48876465 52.77101318 -84.1416626 52.11230469 C-84.97454489 51.27829132 -84.97454489 51.27829132 -85.82425308 50.4274292 C-87 49 -87 49 -87 47 C-86.34 47 -85.68 47 -85 47 C-83.44921875 48.57421875 -83.44921875 48.57421875 -81.6875 50.6875 C-77.93739193 55.08711132 -74.07897662 59.12064827 -69.625 62.8125 C-66.26952015 65.63663489 -63.51623785 68.79155941 -60.68359375 72.12890625 C-58.88693102 74.2152649 -58.88693102 74.2152649 -56 76.5 C-53.53747594 78.55210338 -51.67653293 80.45214889 -49.625 82.875 C-46.66623376 86.35513474 -43.47940827 89.25372805 -39.9921875 92.19140625 C-37.19478963 94.73100471 -34.83069933 97.57260803 -32.4453125 100.49609375 C-31.96835937 100.99238281 -31.49140625 101.48867188 -31 102 C-30.34 102 -29.68 102 -29 102 C-28.36578125 103.06347656 -28.36578125 103.06347656 -27.71875 104.1484375 C-25.72554257 107.45534983 -23.25492046 109.9650768 -20.5 112.625 C-20.01402344 113.10195313 -19.52804687 113.57890625 -19.02734375 114.0703125 C-17.68836391 115.38375321 -16.34436843 116.69207529 -15 118 C-13.99787912 118.99787461 -12.99662735 119.99663868 -12 121 C-10.46047308 119.46047308 -10.86594002 118.0414851 -10.85523987 115.89595032 C-10.84834137 115.01134628 -10.84144287 114.12674225 -10.83433533 113.21533203 C-10.83172195 112.23717529 -10.82910858 111.25901855 -10.82641602 110.2512207 C-10.8163855 108.71464058 -10.8163855 108.71464058 -10.80615234 107.14701843 C-10.79206334 104.91365581 -10.78018169 102.68027846 -10.77020454 100.44689369 C-10.75384428 96.91239236 -10.73060691 93.37799957 -10.70530701 89.84355164 C-10.63440542 79.79101951 -10.57446512 69.73844198 -10.52319336 59.68579102 C-10.49138606 53.54432601 -10.45010018 47.40298347 -10.40299797 41.26161766 C-10.38698174 38.91929519 -10.37465843 36.57694446 -10.36609077 34.2345829 C-10.35392565 30.95484638 -10.32976848 27.67539699 -10.30297852 24.39575195 C-10.30238937 23.42771637 -10.30180023 22.45968079 -10.30119324 21.46231079 C-10.2483754 16.57797475 -9.91295556 12.58273281 -8 8 C-7.34 8 -6.68 8 -6 8 C-6 7.34 -6 6.68 -6 6 C-5.34 6 -4.68 6 -4 6 C-4 5.34 -4 4.68 -4 4 C-3.34 4 -2.68 4 -2 4 C-2 3.34 -2 2.68 -2 2 C-1.34 2 -0.68 2 0 2 C0 1.34 0 0.68 0 0 Z " fill="#0F676C" transform="translate(593,387)"/>
<path d="M0 0 C0 80.19 0 160.38 0 243 C-0.99 242.34 -1.98 241.68 -3 241 C-3.29403407 237.85576527 -3.39077079 234.90863884 -3.36076355 231.76205444 C-3.36332682 230.79254368 -3.3658901 229.82303293 -3.36853105 228.82414305 C-3.37349728 225.55495947 -3.35692919 222.28623132 -3.34057617 219.01708984 C-3.33973051 216.68184927 -3.34020384 214.3466079 -3.34190369 212.0113678 C-3.34276745 205.6541817 -3.32508001 199.29716404 -3.30418181 192.94001722 C-3.28737172 186.97476914 -3.28431558 181.00952784 -3.2812262 175.04425927 C-3.27465587 163.2267399 -3.25467899 151.40928255 -3.22631836 139.59179688 C-3.1987928 128.11035473 -3.17755188 116.62892941 -3.16479492 105.14746094 C-3.16400675 104.44006843 -3.16321858 103.73267593 -3.16240653 103.00384729 C-3.15849149 99.45516377 -3.15470035 95.90648014 -3.15097082 92.35779643 C-3.11985683 62.90515761 -3.06678267 33.45257947 -3 4 C-6.63 7.63 -10.26 11.26 -14 15 C-14.66 14.67 -15.32 14.34 -16 14 C-13.71643754 11.65861457 -11.42186626 9.32833018 -9.125 7 C-8.47402344 6.33226562 -7.82304688 5.66453125 -7.15234375 4.9765625 C-6.52714844 4.34492188 -5.90195312 3.71328125 -5.2578125 3.0625 C-4.6817627 2.47597656 -4.10571289 1.88945312 -3.51220703 1.28515625 C-2 0 -2 0 0 0 Z " fill="#13D6DA" transform="translate(623,362)"/>
<path d="M0 0 C1.65 0 3.3 0 5 0 C5.01030746 0.86506668 5.02061493 1.73013336 5.03123474 2.62141418 C5.12963136 10.81494004 5.23220152 19.00840111 5.33933926 27.20181751 C5.39426213 31.41308529 5.44762926 35.62436027 5.49731445 39.83569336 C5.54541475 43.90765947 5.59776689 47.97955165 5.65294075 52.05142784 C5.67315965 53.59695252 5.69190338 55.1424973 5.70907402 56.68805885 C5.78823935 66.46576792 5.78823935 66.46576792 6.52514648 76.21020508 C7.44275155 85.17662348 7.0230916 94.24316053 6.9140625 103.2421875 C6.89248779 105.34952352 6.87136445 107.45686421 6.85066223 109.56420898 C6.79400049 115.17786918 6.73022863 120.79142705 6.66480637 126.40499115 C6.61171773 131.03284491 6.56276144 135.66073875 6.51374722 140.28863716 C6.14294715 175.19465542 5.66567078 210.09830317 5 245 C1.67702543 244.26419849 -0.17002488 243.31722185 -2.75 241.0625 C-3.36359375 240.53785156 -3.9771875 240.01320313 -4.609375 239.47265625 C-6 238 -6 238 -6 236 C-6.66 236 -7.32 236 -8 236 C-8 235.34 -8 234.68 -8 234 C-8.66 234 -9.32 234 -10 234 C-10 233.34 -10 232.68 -10 232 C-10.99 231.67 -11.98 231.34 -13 231 C-12.67 230.01 -12.34 229.02 -12 228 C-7.05 232.95 -2.1 237.9 3 243 C3.33 163.14 3.66 83.28 4 1 C-2.59095689 6.74327905 -2.59095689 6.74327905 -8.875 12.75 C-9.61492188 13.48734375 -10.35484375 14.2246875 -11.1171875 14.984375 C-13.15520746 17.05664468 -13.15520746 17.05664468 -15 20 C-15.66 19.67 -16.32 19.34 -17 19 C-16.505 17.515 -16.505 17.515 -16 16 C-15.34 16 -14.68 16 -14 16 C-14 15.34 -14 14.68 -14 14 C-13.34 14 -12.68 14 -12 14 C-12 13.34 -12 12.68 -12 12 C-11.34 12 -10.68 12 -10 12 C-9.34 10.68 -8.68 9.36 -8 8 C-7.34 8 -6.68 8 -6 8 C-6 7.34 -6 6.68 -6 6 C-5.34 6 -4.68 6 -4 6 C-4 5.34 -4 4.68 -4 4 C-3.34 4 -2.68 4 -2 4 C-2 3.34 -2 2.68 -2 2 C-1.34 2 -0.68 2 0 2 C0 1.34 0 0.68 0 0 Z " fill="#0A595F" transform="translate(619,361)"/>
<path d="M0 0 C4.07710409 1.62013003 6.80913562 4.537381 9.83203125 7.6015625 C10.38686691 8.15685638 10.94170258 8.71215027 11.51335144 9.28427124 C12.68648789 10.46042442 13.85719729 11.63900276 15.02563477 12.81982422 C16.79075734 14.60303454 18.56358023 16.37828024 20.33789062 18.15234375 C21.48224026 19.30161611 22.62613459 20.45134203 23.76953125 21.6015625 C24.2895723 22.12271637 24.80961334 22.64387024 25.34541321 23.18081665 C28.08073398 25.95055063 30.69763969 28.78217645 33.23332214 31.73629761 C36.79441996 35.8190775 40.53980763 39.66819264 44.38476562 43.48242188 C45.08655441 44.1827504 45.7883432 44.88307892 46.51139832 45.60462952 C48.02163088 47.11108354 49.53301659 48.61638226 51.04545593 50.12062073 C53.44470583 52.50699953 55.84072388 54.89658216 58.23596191 57.2869873 C63.321165 62.36081378 68.41028695 67.43069815 73.5 72.5 C79.40222504 78.37855544 85.30279452 84.25875291 91.19914246 90.14320374 C93.54952954 92.48715071 95.9029287 94.82804378 98.25646973 97.16882324 C99.70954057 98.61825855 101.16246951 100.06783614 102.61523438 101.51757812 C103.26167404 102.15885147 103.90811371 102.80012482 104.57414246 103.46083069 C110.15738318 109.04343011 115.39433302 114.86449294 120.21411133 121.12109375 C135.97086389 142.1208387 135.97086389 142.1208387 158.53417969 153.62255859 C172.93195632 155.4184881 187.68962043 154.02707942 202 152 C202.33 151.34 202.66 150.68 203 150 C203.33 151.32 203.66 152.64 204 154 C196.72839111 154.38404852 189.45943521 154.64446426 182.17993164 154.82397461 C179.71083933 154.89887368 177.24240023 155.00084451 174.77563477 155.1315918 C153.1743682 156.2468627 153.1743682 156.2468627 146.11376953 150.77001953 C142.82605443 147.71442268 140.02638013 144.38339135 137.35586548 140.78286743 C135.45610272 138.28481345 133.26354188 136.16801667 131 134 C108 111 108 111 105.35742188 108.31835938 C102.96604631 105.88576013 102.96604631 105.88576013 99.9375 103.5625 C96.93557964 100.94380352 95.19427861 98.29141791 93 95 C91.67479497 94.31731862 90.34187818 93.6492959 89 93 C88.319375 91.8553125 88.319375 91.8553125 87.625 90.6875 C85.59826615 87.33559402 83.02290076 85.46767409 80 83 C78.66666667 81.33333333 77.33333333 79.66666667 76 78 C74.95419704 77.10511038 73.89079265 76.23046258 72.8125 75.375 C70 73 70 73 69 70 C68.34 70 67.68 70 67 70 C67 69.34 67 68.68 67 68 C66.34 68 65.68 68 65 68 C65 67.34 65 66.68 65 66 C64.34 66 63.68 66 63 66 C63 65.34 63 64.68 63 64 C62.34 64 61.68 64 61 64 C61 63.34 61 62.68 61 62 C60.34 62 59.68 62 59 62 C59 61.34 59 60.68 59 60 C58.34 60 57.68 60 57 60 C57 59.34 57 58.68 57 58 C56.34 58 55.68 58 55 58 C55 57.34 55 56.68 55 56 C54.34 56 53.68 56 53 56 C53 55.34 53 54.68 53 54 C52.34 54 51.68 54 51 54 C51 53.34 51 52.68 51 52 C50.34 52 49.68 52 49 52 C49 51.34 49 50.68 49 50 C48.443125 49.773125 47.88625 49.54625 47.3125 49.3125 C43.31561114 47.04399551 40.46033351 44.38100054 39 40 C38.34 40 37.68 40 37 40 C34.875 38.125 34.875 38.125 33 36 C33 35.34 33 34.68 33 34 C32.34 34 31.68 34 31 34 C31 33.34 31 32.68 31 32 C30.34 32 29.68 32 29 32 C28.67 31.01 28.34 30.02 28 29 C27.278125 28.566875 26.55625 28.13375 25.8125 27.6875 C22.22081518 25.53248911 19.82915233 23.09232929 17 20 C17 19.34 17 18.68 17 18 C15.68 17.34 14.36 16.68 13 16 C13 15.34 13 14.68 13 14 C12.34 14 11.68 14 11 14 C11 13.34 11 12.68 11 12 C10.34 12 9.68 12 9 12 C9 11.34 9 10.68 9 10 C8.34 10 7.68 10 7 10 C7 9.34 7 8.68 7 8 C6.34 8 5.68 8 5 8 C2.63785462 5.35153397 1.12827868 3.38483604 0 0 Z " fill="#13727C" transform="translate(460,531)"/>
<path d="M0 0 C1.32 0.33 2.64 0.66 4 1 C3.01 1.495 3.01 1.495 2 2 C1.67 92.09 1.34 182.18 1 275 C0.67 275 0.34 275 0 275 C-0.33 250.91 -0.66 226.82 -1 202 C-1.33 202 -1.66 202 -2 202 C-2 160.75 -2 119.5 -2 77 C-1.34 77 -0.68 77 0 77 C0 51.59 0 26.18 0 0 Z " fill="#075454" transform="translate(355,373)"/>
<path d="M0 0 C0.99 0.33 1.98 0.66 3 1 C2.01 1.495 2.01 1.495 1 2 C1.33 82.19 1.66 162.38 2 245 C3.485 243.02 3.485 243.02 5 241 C5.66 241 6.32 241 7 241 C7.33 240.01 7.66 239.02 8 238 C8.33 238.66 8.66 239.32 9 240 C8.505 240.99 8.505 240.99 8 242 C7.34 242 6.68 242 6 242 C5.505 243.98 5.505 243.98 5 246 C3.35 246.33 1.7 246.66 0 247 C-1.2995552 223.48701477 -1.15636969 199.96134887 -1.12857056 176.42123795 C-1.12497181 172.97299363 -1.12337355 169.52475354 -1.12231445 166.07650757 C-1.10133106 110.71499833 -0.58250699 55.35806441 0 0 Z " fill="#0D676A" transform="translate(416,433)"/>
<path d="M0 0 C6.8388835 5.6091057 13.00966724 11.86424267 19.25 18.1171875 C20.43377364 19.30028611 21.61769557 20.48323637 22.80175781 21.66604614 C25.27441403 24.13723417 27.74526855 26.61020573 30.21484375 29.08447266 C33.3616587 32.23697805 36.51293427 35.38498015 39.66558838 38.53164482 C42.10909939 40.97152108 44.55019749 43.41380033 46.99060059 45.85678482 C48.15074525 47.01759104 49.31161783 48.17767027 50.4732666 49.33697128 C52.10441846 50.9655491 53.73227288 52.5973578 55.359375 54.22998047 C56.28202148 55.15342255 57.20466797 56.07686462 58.15527344 57.02828979 C60.33180759 59.25549783 62.38357617 61.5680384 64.42045593 63.9234314 C67.76629842 67.7792731 71.28427688 71.40693769 74.91333008 74.99511719 C75.56462891 75.64334946 76.21592773 76.29158173 76.88696289 76.9594574 C78.28591226 78.35131205 79.68599038 79.74203298 81.0871067 81.13170624 C83.30472469 83.33179018 85.51865682 85.53552315 87.73161316 87.74029541 C94.01854289 94.00288523 100.311207 100.25969028 106.6081543 106.51220703 C110.47187498 110.34917111 114.33073127 114.19097167 118.18662071 118.03580475 C119.65396629 119.49694291 121.12320658 120.95618087 122.59436989 122.41347504 C124.64535654 124.44527772 126.69013856 126.48313668 128.73364258 128.52246094 C129.34195419 129.12201096 129.95026581 129.72156097 130.57701111 130.33927917 C131.4115834 131.17580772 131.4115834 131.17580772 132.26301575 132.02923584 C132.74616147 132.50923916 133.22930719 132.98924248 133.7270937 133.48379135 C135.17188758 135.20474204 136.06894841 136.96217416 137 139 C136.01 139 135.02 139 134 139 C132.65668346 137.00669158 131.32405988 135.00615134 130 133 C128.68252676 132.30251417 127.35085807 131.63040043 126 131 C125.31513275 129.67592331 124.65129797 128.34090759 124 127 C122.36023398 125.30686004 120.68742547 123.64564602 119 122 C117.94642093 120.94941453 116.89439813 119.89726658 115.84375 118.84375 C115.29589844 118.29589844 114.74804688 117.74804688 114.18359375 117.18359375 C112.5078125 115.5078125 110.83203125 113.83203125 109.15625 112.15625 C108.35574219 111.35960937 108.35574219 111.35960937 107.5390625 110.546875 C106.10114046 109.10165387 104.69007556 107.62984915 103.28125 106.15625 C101.11330035 103.80340504 101.11330035 103.80340504 98 103 C98 102.01 98 101.02 98 100 C97.34 100 96.68 100 96 100 C93.875 98.125 93.875 98.125 92 96 C92 95.34 92 94.68 92 94 C91.401875 93.938125 90.80375 93.87625 90.1875 93.8125 C87.13428333 92.67844809 86.63970605 90.75470617 85 88 C83.34051852 86.98812105 81.67419438 85.9873454 80 85 C79.55720703 84.07767578 79.55720703 84.07767578 79.10546875 83.13671875 C77.75856621 80.53334175 76.13990807 79.21777467 73.875 77.375 C72.54718539 76.29290197 71.24546176 75.17594761 70 74 C70 73.34 70 72.68 70 72 C69.34 72 68.68 72 68 72 C68 71.34 68 70.68 68 70 C67.34 70 66.68 70 66 70 C64.64613064 68.34997172 63.31321858 66.6825613 62 65 C61.01 64.505 61.01 64.505 60 64 C60 63.34 60 62.68 60 62 C59.34 62 58.68 62 58 62 C56.4921875 60.5390625 56.4921875 60.5390625 54.875 58.625 C54.33617187 57.99851562 53.79734375 57.37203125 53.2421875 56.7265625 C52 55 52 55 52 53 C50.68 52.34 49.36 51.68 48 51 C48 50.34 48 49.68 48 49 C47.34 49 46.68 49 46 49 C46 48.34 46 47.68 46 47 C45.34 47 44.68 47 44 47 C42.51953125 45.4609375 42.51953125 45.4609375 40.8125 43.375 C37.8899337 39.91212733 34.84169098 37.02489092 31.28515625 34.2265625 C30.86105469 33.82179688 30.43695313 33.41703125 30 33 C30 32.34 30 31.68 30 31 C29.34 31 28.68 31 28 31 C28 30.34 28 29.68 28 29 C27.34 29 26.68 29 26 29 C26 28.34 26 27.68 26 27 C25.4121875 26.75121094 24.824375 26.50242187 24.21875 26.24609375 C21.69011407 24.82596195 20.33226637 23.29869782 18.5 21.0625 C16.19331478 18.25778047 13.94643455 16.11925928 11 14 C9 12 9 12 7 9.4375 C5.23362558 6.94690328 5.23362558 6.94690328 3 6 C3 5.34 3 4.68 3 4 C2.34 4 1.68 4 1 4 C0.67 2.68 0.34 1.36 0 0 Z " fill="#125C66" transform="translate(423,404)"/>
<path d="M0 0 C0.66 0.33 1.32 0.66 2 1 C2 91.42 2 181.84 2 275 C-1.76687864 273.11656068 -2.79421646 272.30867531 -5 269 C-4.360625 268.855625 -3.72125 268.71125 -3.0625 268.5625 C-1.02454854 268.18992819 -1.02454854 268.18992819 0 267 C0.09660712 265.57171382 0.12371834 264.13866369 0.12304783 262.70711422 C0.12503888 261.77505655 0.12702993 260.84299888 0.12908131 259.88269705 C0.12616847 258.84672669 0.12325563 257.81075634 0.12025452 256.74339294 C0.12153615 255.10664859 0.12153615 255.10664859 0.12284368 253.43683869 C0.1245017 249.75011252 0.11897187 246.06343102 0.11352539 242.37670898 C0.11324356 239.74605307 0.11340117 237.11539708 0.1139679 234.48474121 C0.11449332 228.80547554 0.11134461 223.12622133 0.10573006 217.44695854 C0.09761753 209.23560688 0.09500009 201.02426079 0.09374207 192.81290556 C0.09155116 179.49188507 0.08489002 166.17087069 0.07543945 152.84985352 C0.06626634 139.90649445 0.05918501 126.96313705 0.05493164 114.01977539 C0.05466892 113.22251029 0.05440619 112.4252452 0.05413551 111.60382055 C0.05283051 107.60434417 0.05156679 103.60486778 0.05032361 99.60539138 C0.03994978 66.40358981 0.02233041 33.20179572 0 0 Z " fill="#16D8D8" transform="translate(390,407)"/>
<path d="M0 0 C4.71138201 -0.11603878 9.41762211 -0.15686154 14.13037109 -0.13265991 C15.73470768 -0.13203325 17.33915127 -0.14867681 18.94311523 -0.18325806 C31.83302373 -0.4372637 31.83302373 -0.4372637 36.66296387 3.00598145 C38.96076538 5.57380169 40.92445127 8.25378683 42.92736816 11.05578613 C44.54991834 12.79747803 46.20571788 14.50874816 47.89221191 16.18859863 C48.71141113 17.01359863 49.53061035 17.83859863 50.37463379 18.68859863 C51.19641113 19.51102051 52.01818848 20.33344238 52.86486816 21.18078613 C53.71371582 22.04187988 54.56256348 22.90297363 55.43713379 23.79016113 C56.24730957 24.60227051 57.05748535 25.41437988 57.89221191 26.25109863 C58.98457153 27.34962158 58.98457153 27.34962158 60.09899902 28.47033691 C61.77586608 30.27416416 61.77586608 30.27416416 63.92736816 30.05578613 C64.29861816 30.71578613 64.66986816 31.37578613 65.05236816 32.05578613 C68.0806268 36.90099994 72.27146181 41.16092897 76.93127441 44.48547363 C78.92736816 46.05578613 78.92736816 46.05578613 80.65856934 48.25427246 C83.32128306 51.5421924 86.22198212 54.47524401 89.22424316 57.45031738 C89.81787659 58.04253586 90.41151001 58.63475433 91.02313232 59.24491882 C92.90552781 61.12175087 94.79138381 62.99506118 96.67736816 64.86828613 C97.96015103 66.14604927 99.24270555 67.42404171 100.52502441 68.70227051 C103.65650288 71.82276849 106.79108806 74.94011442 109.92736816 78.05578613 C109.59736816 78.71578613 109.26736816 79.37578613 108.92736816 80.05578613 C108.08626495 79.10365234 107.24516174 78.15151855 106.37857056 77.17053223 C98.32289181 68.0886387 90.1285511 59.15181357 81.79046822 50.32827759 C77.50917829 45.78888545 73.28523332 41.21741095 69.17004395 36.52648926 C48.36884429 12.10722047 48.36884429 12.10722047 19.2701416 1.64562988 C-0.34146249 0.48260298 -0.34146249 0.48260298 -19.07263184 5.05578613 C-19.73263184 4.72578613 -20.39263184 4.39578613 -21.07263184 4.05578613 C-21.07263184 3.06578613 -21.07263184 2.07578613 -21.07263184 1.05578613 C-14.05428509 0.43930973 -7.0416968 0.18953151 0 0 Z " fill="#105E65" transform="translate(396.0726318359375,353.9442138671875)"/>
<path d="M0 0 C3.73639216 1.24546405 4.18756513 2.63404953 6 6 C4.68 6.33 3.36 6.66 2 7 C1.99576806 7.57537443 1.99153612 8.15074886 1.98717594 8.74355888 C1.88396053 22.73086459 1.7752739 36.7181185 1.66066074 50.70533562 C1.60533588 57.46939226 1.5518551 64.23345418 1.50268555 70.99755859 C1.4552649 77.52036533 1.402745 84.04311926 1.34705925 90.56586075 C1.3266156 93.05942574 1.30790591 95.55300555 1.29092598 98.04659653 C1.26692643 101.52835214 1.2368658 105.01000496 1.20532227 108.49169922 C1.1995668 109.53179138 1.19381134 110.57188354 1.18788147 111.64349365 C1.17319824 113.06119553 1.17319824 113.06119553 1.15821838 114.50753784 C1.15176583 115.33162077 1.14531328 116.1557037 1.1386652 117.00475883 C1 119 1 119 0 121 C-0.99 121 -1.98 121 -3 121 C-3.309375 121.61875 -3.61875 122.2375 -3.9375 122.875 C-4.625 124.25 -5.3125 125.625 -6 127 C-6.66 127 -7.32 127 -8 127 C-8 127.66 -8 128.32 -8 129 C-8.66 129 -9.32 129 -10 129 C-10 129.66 -10 130.32 -10 131 C-10.66 131 -11.32 131 -12 131 C-12 131.66 -12 132.32 -12 133 C-12.66 133 -13.32 133 -14 133 C-14 133.66 -14 134.32 -14 135 C-15.32 134.67 -16.64 134.34 -18 134 C-17.38125 133.7525 -16.7625 133.505 -16.125 133.25 C-13.87754688 132.20953279 -13.87754688 132.20953279 -13.21369934 130.17707825 C-12 128 -12 128 -9.44389343 126.14067078 C-5.03476268 122.85911318 -1.71371498 119.89219354 -0.35919571 114.40326309 C0.66456391 106.41864503 0.40863786 98.36391387 0.29296875 90.33203125 C0.29489223 87.72457605 0.30166407 85.11712032 0.31306458 82.50968933 C0.33179099 76.37181331 0.2949767 70.23561201 0.23759204 64.09802693 C0.1749488 57.10388399 0.17515366 50.11016882 0.18031728 43.11579859 C0.18953644 28.74330982 0.12087172 14.37195461 0 0 Z " fill="#0E7B83" transform="translate(454,525)"/>
<path d="M0 0 C4.07710409 1.62013003 6.80913562 4.537381 9.83203125 7.6015625 C10.38686691 8.15685638 10.94170258 8.71215027 11.51335144 9.28427124 C12.68648789 10.46042442 13.85719729 11.63900276 15.02563477 12.81982422 C16.79075734 14.60303454 18.56358023 16.37828024 20.33789062 18.15234375 C21.48224026 19.30161611 22.62613459 20.45134203 23.76953125 21.6015625 C24.2895723 22.12271637 24.80961334 22.64387024 25.34541321 23.18081665 C28.1361998 26.00671428 30.80164717 28.89853921 33.39331055 31.90869141 C37.03800285 36.11254664 40.94531876 39.98800977 44.9375 43.859375 C46.42375736 45.31841955 47.90941794 46.77807222 49.39453125 48.23828125 C51.71087552 50.51111681 54.03075884 52.77981731 56.36083984 55.03857422 C58.6269213 57.23840982 60.87705269 59.45353252 63.125 61.671875 C64.18255493 62.68601471 64.18255493 62.68601471 65.26147461 63.72064209 C65.89964111 64.35520325 66.53780762 64.9897644 67.1953125 65.64355469 C67.76266113 66.19678406 68.33000977 66.75001343 68.91455078 67.32000732 C70 69 70 69 69.67529297 71.20977783 C69.45244629 71.80055115 69.22959961 72.39132446 69 73 C69 72.01 69 71.02 69 70 C68.34 70 67.68 70 67 70 C67 69.34 67 68.68 67 68 C66.34 68 65.68 68 65 68 C65 67.34 65 66.68 65 66 C64.34 66 63.68 66 63 66 C63 65.34 63 64.68 63 64 C62.34 64 61.68 64 61 64 C61 63.34 61 62.68 61 62 C60.34 62 59.68 62 59 62 C59 61.34 59 60.68 59 60 C58.34 60 57.68 60 57 60 C57 59.34 57 58.68 57 58 C56.34 58 55.68 58 55 58 C55 57.34 55 56.68 55 56 C54.34 56 53.68 56 53 56 C53 55.34 53 54.68 53 54 C52.34 54 51.68 54 51 54 C51 53.34 51 52.68 51 52 C50.34 52 49.68 52 49 52 C49 51.34 49 50.68 49 50 C48.443125 49.773125 47.88625 49.54625 47.3125 49.3125 C43.31561114 47.04399551 40.46033351 44.38100054 39 40 C38.34 40 37.68 40 37 40 C34.875 38.125 34.875 38.125 33 36 C33 35.34 33 34.68 33 34 C32.34 34 31.68 34 31 34 C31 33.34 31 32.68 31 32 C30.34 32 29.68 32 29 32 C28.67 31.01 28.34 30.02 28 29 C27.278125 28.566875 26.55625 28.13375 25.8125 27.6875 C22.22081518 25.53248911 19.82915233 23.09232929 17 20 C17 19.34 17 18.68 17 18 C15.68 17.34 14.36 16.68 13 16 C13 15.34 13 14.68 13 14 C12.34 14 11.68 14 11 14 C11 13.34 11 12.68 11 12 C10.34 12 9.68 12 9 12 C9 11.34 9 10.68 9 10 C8.34 10 7.68 10 7 10 C7 9.34 7 8.68 7 8 C6.34 8 5.68 8 5 8 C2.63785462 5.35153397 1.12827868 3.38483604 0 0 Z " fill="#105963" transform="translate(460,531)"/>
<path d="M0 0 C6.27126009 5.13103098 11.90956663 10.81939816 17.59472656 16.57861328 C20.48737436 19.50442904 23.40468649 22.40569039 26.31640625 25.3125 C28.47508387 27.4743198 30.62746341 29.64195282 32.77734375 31.8125 C34.16401057 33.20838493 35.55073047 34.60421711 36.9375 36 C37.62779297 36.69867188 38.31808594 37.39734375 39.02929688 38.1171875 C42.08645816 41.1888377 45.11888181 44.16459593 48.50390625 46.875 C49.32761719 47.57625 50.15132813 48.2775 51 49 C51 49.66 51 50.32 51 51 C51.66 51 52.32 51 53 51 C53 51.66 53 52.32 53 53 C53.66 53 54.32 53 55 53 C59.76744186 57.30232558 59.76744186 57.30232558 61 61 C61.66 61 62.32 61 63 61 C64.62109375 62.6796875 64.62109375 62.6796875 66.4375 64.875 C68.58400884 67.46193722 70.16776562 69.11184374 73 71 C73 71.66 73 72.32 73 73 C74.485 73.495 74.485 73.495 76 74 C77.68359375 75.70703125 77.68359375 75.70703125 79.4375 77.8125 C81.85689832 80.66759505 84.2971523 83.4052662 87 86 C86.67 86.66 86.34 87.32 86 88 C74.78093407 76.82759998 63.56755946 65.64952171 52.36097717 54.46460152 C47.15774486 49.27169343 41.95264866 44.08067941 36.74316406 38.89404297 C32.20398758 34.37476534 27.66830628 29.85201436 23.13683414 25.32501113 C20.73606599 22.92685632 18.33355268 20.53050915 15.92684937 18.13830948 C13.24477953 15.47065902 10.56893389 12.79691584 7.89453125 10.12158203 C6.68828598 8.92612259 6.68828598 8.92612259 5.45767212 7.70651245 C4.73405487 6.98014587 4.01043762 6.2537793 3.26489258 5.50540161 C2.63069901 4.87305162 1.99650543 4.24070164 1.34309387 3.58918953 C0 2 0 2 0 0 Z " fill="#10696F" transform="translate(419,435)"/>
<path d="M0 0 C4.72960662 2.46684923 8.03075743 5.83159548 11.6875 9.625 C12.83498965 10.80687614 13.98463067 11.98666844 15.13671875 13.1640625 C15.63905029 13.68436035 16.14138184 14.2046582 16.65893555 14.74072266 C17.9974416 16.11799072 17.9974416 16.11799072 20 17 C20 17.66 20 18.32 20 19 C20.66 19 21.32 19 22 19 C24.625 21.375 24.625 21.375 27 24 C27 24.66 27 25.32 27 26 C27.66 26 28.32 26 29 26 C30.36639342 27.6396721 31.6949419 29.31110128 33 31 C35.00148965 33.1891293 36.51594259 34.7648864 39.1875 36.0625 C41 37 41 37 42 40 C43.62251101 41.70968231 45.29619054 43.37132296 47 45 C47.81339844 45.825 48.62679687 46.65 49.46484375 47.5 C54.84159638 52.97197507 54.84159638 52.97197507 60.625 58 C61.40875 58.66 62.1925 59.32 63 60 C63 60.66 63 61.32 63 62 C63.66 62 64.32 62 65 62 C65 62.66 65 63.32 65 64 C65.66 64 66.32 64 67 64 C68.3671875 65.42578125 68.3671875 65.42578125 69.875 67.3125 C72.06613512 69.97623289 74.21020719 71.96130525 77 74 C77 74.66 77 75.32 77 76 C78.485 76.495 78.485 76.495 80 77 C79.505 78.485 79.505 78.485 79 80 C78.6050062 79.60408441 78.2100124 79.20816881 77.80304909 78.80025578 C68.19988574 69.1750256 58.59393674 59.55258329 48.98496437 49.9331522 C44.33825894 45.28121958 39.69249183 40.62835777 35.04882812 35.97338867 C30.57065233 31.48437821 26.09006558 26.9977875 21.60776901 22.51289177 C19.89481183 20.79808138 18.18273759 19.08238855 16.47154617 17.36581612 C14.08180528 14.96885716 11.68899495 12.57500434 9.29541016 10.18188477 C8.58259384 9.46547318 7.86977753 8.74906158 7.13536072 8.01094055 C6.48472153 7.36167603 5.83408234 6.7124115 5.16372681 6.04347229 C4.59774591 5.4765696 4.03176502 4.90966692 3.44863319 4.32558537 C2.01777467 2.89477044 2.01777467 2.89477044 0 2 C0 1.34 0 0.68 0 0 Z " fill="#0E787F" transform="translate(582,601)"/>
<path d="M0 0 C2.475 0.99 2.475 0.99 5 2 C5 2.66 5 3.32 5 4 C5.66 4 6.32 4 7 4 C8.56958193 5.67721041 9.9480525 7.46794114 11.3671875 9.2734375 C13.11402358 11.12057039 14.67886222 12.00522667 17 13 C17 14.32 17 15.64 17 17 C17.99 17.33 18.98 17.66 20 18 C20.33 18.99 20.66 19.98 21 21 C21.9590625 21.2165625 21.9590625 21.2165625 22.9375 21.4375 C23.618125 21.623125 24.29875 21.80875 25 22 C25.29879783 22.61621656 25.59759565 23.23243313 25.90544796 23.86732292 C27.15702748 26.30595978 28.34595998 27.14123968 30.57533264 28.68533325 C33.41440152 31.04343664 34.49662336 32.47827208 34.84178162 36.17623901 C34.86191659 37.79566628 34.8438013 39.41586071 34.79467773 41.03466797 C34.79569992 41.92311905 34.79672211 42.81157013 34.79777527 43.72694397 C34.79291638 46.64992933 34.73855798 49.56975124 34.68359375 52.4921875 C34.67053146 54.52383722 34.66057027 56.55550904 34.65357971 58.58718872 C34.62690398 63.92412627 34.5581849 69.25972166 34.48065186 74.59613037 C34.40893266 80.04567306 34.37704962 85.4954335 34.34179688 90.9453125 C34.26681419 101.63079673 34.14740532 112.31528658 34 123 C33.67 123 33.34 123 33 123 C33.02450981 121.34868073 33.02450981 121.34868073 33.04951477 119.66400146 C33.19552611 109.24857327 33.27220584 98.83458908 33.28240681 88.41811752 C33.28984137 83.06353187 33.32101322 77.71135357 33.40795898 72.35742188 C33.49110149 67.18235094 33.5098963 62.01054951 33.48558617 56.83490753 C33.48736716 54.86858193 33.51166567 52.90213368 33.55968666 50.93639374 C34.09750322 39.29255005 34.09750322 39.29255005 29.14657593 29.21594238 C26.95786239 27.06594322 24.65225672 25.19527499 22.18205261 23.37994385 C19.1697358 21.12695003 17.22249866 19.00023344 15 16 C13.35606051 14.31091193 11.68823479 12.64481575 10 11 C8.2279498 9.25123221 6.45709927 7.50124787 4.6875 5.75 C3.80449219 4.87859375 2.92148437 4.0071875 2.01171875 3.109375 C0 1 0 1 0 0 Z " fill="#119092" transform="translate(359,375)"/>
<path d="M0 0 C6.94103433 5.68021791 13.17673906 12.05001756 19.49609375 18.3984375 C20.69656287 19.60077468 21.89725518 20.80288905 23.09815979 22.00479126 C26.23866548 25.14909163 29.37615481 28.29638479 32.51300049 31.44433594 C35.72232618 34.66394173 38.93453005 37.88067321 42.14648438 41.09765625 C48.43379102 47.39564635 54.71791106 53.69680565 61 60 C60.01 60.495 60.01 60.495 59 61 C57.8274869 60.04882866 56.66212985 59.08882991 55.5 58.125 C54.8503125 57.59132813 54.200625 57.05765625 53.53125 56.5078125 C53.0259375 56.01023437 52.520625 55.51265625 52 55 C52 54.34 52 53.68 52 53 C50.68 52.34 49.36 51.68 48 51 C48 50.34 48 49.68 48 49 C47.34 49 46.68 49 46 49 C46 48.34 46 47.68 46 47 C45.34 47 44.68 47 44 47 C42.51953125 45.4609375 42.51953125 45.4609375 40.8125 43.375 C37.8899337 39.91212733 34.84169098 37.02489092 31.28515625 34.2265625 C30.86105469 33.82179688 30.43695313 33.41703125 30 33 C30 32.34 30 31.68 30 31 C29.34 31 28.68 31 28 31 C28 30.34 28 29.68 28 29 C27.34 29 26.68 29 26 29 C26 28.34 26 27.68 26 27 C25.4121875 26.75121094 24.824375 26.50242187 24.21875 26.24609375 C21.69011407 24.82596195 20.33226637 23.29869782 18.5 21.0625 C16.19331478 18.25778047 13.94643455 16.11925928 11 14 C9 12 9 12 7 9.4375 C5.23362558 6.94690328 5.23362558 6.94690328 3 6 C3 5.34 3 4.68 3 4 C2.34 4 1.68 4 1 4 C0.67 2.68 0.34 1.36 0 0 Z " fill="#107C87" transform="translate(423,404)"/>
<path d="M0 0 C0.495 1.485 0.495 1.485 1 3 C0.35298126 2.99777939 -0.29403748 2.99555878 -0.96066284 2.99327087 C-7.67608083 2.97120032 -14.39148856 2.95608596 -21.10693359 2.94506836 C-23.61540139 2.94002997 -26.12386624 2.93319916 -28.63232422 2.92456055 C-32.2314527 2.91247339 -35.83054247 2.90676685 -39.4296875 2.90234375 C-40.55680145 2.89718246 -41.68391541 2.89202118 -42.84518433 2.88670349 C-44.40657639 2.88659019 -44.40657639 2.88659019 -45.99951172 2.88647461 C-47.37851151 2.88314369 -47.37851151 2.88314369 -48.78536987 2.87974548 C-51.04150588 2.85489471 -51.04150588 2.85489471 -53 4 C-53.66 3.67 -54.32 3.34 -55 3 C-55 2.01 -55 1.02 -55 0 C-36.67950315 -1.60923283 -18.34679384 -0.65774621 0 0 Z " fill="#0A7377" transform="translate(430,355)"/>
<path d="M0 0 C0.33 0 0.66 0 1 0 C1 27.06 1 54.12 1 82 C-2.79641089 81.05089728 -3.95362699 80.5063388 -6.75 78.0625 C-7.36359375 77.53785156 -7.9771875 77.01320313 -8.609375 76.47265625 C-10 75 -10 75 -10 73 C-10.66 73 -11.32 73 -12 73 C-12 72.34 -12 71.68 -12 71 C-12.66 71 -13.32 71 -14 71 C-14 70.34 -14 69.68 -14 69 C-14.99 68.67 -15.98 68.34 -17 68 C-16.67 67.01 -16.34 66.02 -16 65 C-11.05 69.95 -6.1 74.9 -1 80 C-0.67 53.6 -0.34 27.2 0 0 Z " fill="#0B757B" transform="translate(623,524)"/>
<path d="M0 0 C4.89943116 4.06548543 9.4005019 8.36752227 13.8671875 12.90234375 C15.58685151 14.59366165 17.30163594 16.12914448 19.1875 17.625 C21.40926091 19.50115366 23.04989832 21.16334863 24.875 23.375 C27.66838012 26.74758493 30.77761173 29.52718359 34.1015625 32.3671875 C40.67307692 38.01923077 40.67307692 38.01923077 42 42 C42.66 42 43.32 42 44 42 C44 42.66 44 43.32 44 44 C45.32 44.66 46.64 45.32 48 46 C47.34 46.66 46.68 47.32 46 48 C39.9964873 42.04275371 33.99833953 36.08017966 28.0070343 30.11065865 C25.225096 27.33917374 22.44132118 24.56958641 19.65332031 21.80419922 C16.964644 19.13719592 14.28083114 16.46538804 11.60037231 13.7901268 C10.57501238 12.76847261 9.54788898 11.74858522 8.51901245 10.73047256 C7.08228765 9.30818854 5.65229615 7.87911243 4.22265625 6.44970703 C3.40547119 5.6369632 2.58828613 4.82421936 1.74633789 3.98684692 C0 2 0 2 0 0 Z " fill="#107078" transform="translate(513,530)"/>
<path d="M0 0 C5.55439924 4.62491379 10.68525669 9.55360964 15.77734375 14.6796875 C16.58869278 15.49245148 17.40004181 16.30521545 18.23597717 17.14260864 C20.8055259 19.71771738 23.37155968 22.2962962 25.9375 24.875 C27.68791929 26.63043946 29.438568 28.38565017 31.18945312 30.140625 C35.46229302 34.42444082 39.73225899 38.71110472 44 43 C43.01 43.33 42.02 43.66 41 44 C41 43.34 41 42.68 41 42 C40.34 42 39.68 42 39 42 C39 41.34 39 40.68 39 40 C37.68 39.34 36.36 38.68 35 38 C35 37.34 35 36.68 35 36 C34.34 36 33.68 36 33 36 C33 35.34 33 34.68 33 34 C32.34 34 31.68 34 31 34 C29.5625 32.50390625 29.5625 32.50390625 28 30.5625 C25.85474956 27.84811762 25.85474956 27.84811762 23 26 C23 25.34 23 24.68 23 24 C22.4225 23.7525 21.845 23.505 21.25 23.25 C18.67060021 21.81700012 16.93878408 20.21575324 15 18 C15 17.34 15 16.68 15 16 C14.34 16 13.68 16 13 16 C13 15.34 13 14.68 13 14 C12.34 14 11.68 14 11 14 C11 13.34 11 12.68 11 12 C10.34 12 9.68 12 9 12 C9 11.34 9 10.68 9 10 C8.34 10 7.68 10 7 10 C7 9.34 7 8.68 7 8 C6.34 8 5.68 8 5 8 C5 7.34 5 6.68 5 6 C4.34 6 3.68 6 3 6 C3 5.34 3 4.68 3 4 C2.34 4 1.68 4 1 4 C0.67 2.68 0.34 1.36 0 0 Z " fill="#105A62" transform="translate(562,545)"/>
<path d="M0 0 C4.92887045 2.19060909 8.60691007 5.57038331 12.36987305 9.36547852 C14.42439964 11.42554374 16.50006064 13.46361024 18.57421875 15.50390625 C20.27877291 17.1899757 21.98319654 18.87617713 23.6875 20.5625 C24.55439453 21.41263672 25.42128906 22.26277344 26.31445312 23.13867188 C27.14267578 23.96044922 27.97089844 24.78222656 28.82421875 25.62890625 C29.57791748 26.37213135 30.33161621 27.11535645 31.1081543 27.88110352 C32.87545921 29.86051239 33.96207992 31.5747576 35 34 C29.98343041 32.5666944 27.98547118 30.09436048 25 26 C25 25.34 25 24.68 25 24 C24.01 24 23.02 24 22 24 C21.67 22.68 21.34 21.36 21 20 C20.12601563 19.85884766 20.12601563 19.85884766 19.234375 19.71484375 C16.50106664 18.84037621 15.24160186 17.60942413 13.25 15.5625 C12.63640625 14.94503906 12.0228125 14.32757812 11.390625 13.69140625 C10 12 10 12 10 10 C9.34 10 8.68 10 8 10 C6.30859375 8.3203125 6.30859375 8.3203125 4.4375 6.125 C3.50744141 5.04605469 3.50744141 5.04605469 2.55859375 3.9453125 C1 2 1 2 0 0 Z " fill="#157F89" transform="translate(647,632)"/>
<path d="M0 0 C4.19625909 1.63778045 6.98676785 4.73323182 10.078125 7.8828125 C10.64956238 8.45707977 11.22099976 9.03134705 11.80975342 9.62301636 C13.62792945 11.4523581 15.43901492 13.28854193 17.25 15.125 C18.48391329 16.36894774 19.71828322 17.6124427 20.953125 18.85546875 C23.97406743 21.89842367 26.98867092 24.94753254 30 28 C29.67 28.66 29.34 29.32 29 30 C24.35057557 27.12178487 20.69590939 24.04790076 17 20 C17 19.34 17 18.68 17 18 C15.68 17.34 14.36 16.68 13 16 C13 15.34 13 14.68 13 14 C12.34 14 11.68 14 11 14 C11 13.34 11 12.68 11 12 C10.34 12 9.68 12 9 12 C9 11.34 9 10.68 9 10 C8.34 10 7.68 10 7 10 C7 9.34 7 8.68 7 8 C6.34 8 5.68 8 5 8 C2.63785462 5.35153397 1.12827868 3.38483604 0 0 Z " fill="#0F7B85" transform="translate(460,531)"/>
<path d="M0 0 C3.73639216 1.24546405 4.18756513 2.63404953 6 6 C4.68 6.33 3.36 6.66 2 7 C2.00580078 7.98863037 2.01160156 8.97726074 2.01757812 9.99584961 C2.06326163 21.52575032 1.82034391 33.03764412 1.5 44.5625 C1.45161558 46.36392673 1.40343748 48.16535902 1.35546875 49.96679688 C1.23934619 54.31126532 1.12047168 58.65565008 1 63 C0.67 63 0.34 63 0 63 C0 42.21 0 21.42 0 0 Z " fill="#10828C" transform="translate(454,525)"/>
<path d="M0 0 C0.33 0 0.66 0 1 0 C1.01213028 1.44033096 1.01213028 1.44033096 1.02450562 2.90975952 C1.10188396 11.94496848 1.18960187 20.9800253 1.28752708 30.01503563 C1.33754069 34.66038381 1.38387009 39.30570869 1.421875 43.95117188 C1.45866408 48.43164384 1.50500624 52.91192316 1.55806351 57.39223099 C1.57664149 59.104271 1.59173678 60.81635236 1.60334396 62.52845383 C1.62014852 64.92070122 1.64916852 67.31250412 1.68115234 69.70458984 C1.68331253 70.41740616 1.68547272 71.13022247 1.68769836 71.86463928 C1.65113222 75.87885915 1.65113222 75.87885915 4 79 C2.68 79.99 1.36 80.98 0 82 C0 54.94 0 27.88 0 0 Z " fill="#0CB8BA" transform="translate(417,597)"/>
<path d="M0 0 C3.76878586 1.55799693 6.11271145 3.909366 8.9375 6.8125 C9.77152344 7.66457031 10.60554688 8.51664063 11.46484375 9.39453125 C12.71974609 10.68423828 12.71974609 10.68423828 14 12 C14.80050781 12.7940625 15.60101563 13.588125 16.42578125 14.40625 C19.4359554 17.4392631 22.35009117 20.54948591 25.25 23.6875 C25.79140625 24.26822266 26.3328125 24.84894531 26.890625 25.44726562 C30.88084609 29.76169218 30.88084609 29.76169218 32 32 C28.79424013 31.65652573 28.02483241 31.0292146 25.875 28.5 C24.946875 27.2625 24.946875 27.2625 24 26 C23.34 25.67 22.68 25.34 22 25 C22 24.34 22 23.68 22 23 C21.34 23 20.68 23 20 23 C18.31267723 21.01739574 16.64633943 19.0167658 15 17 C14.34 16.67 13.68 16.34 13 16 C13 15.34 13 14.68 13 14 C12.443125 13.79375 11.88625 13.5875 11.3125 13.375 C8.02987629 11.42316968 6.29326754 9.05769006 4 6 C4 5.34 4 4.68 4 4 C3.34 4 2.68 4 2 4 C2 3.34 2 2.68 2 2 C1.34 2 0.68 2 0 2 C0 1.34 0 0.68 0 0 Z " fill="#115258" transform="translate(356,648)"/>
<path d="M0 0 C1.8125 0.1875 1.8125 0.1875 4 1 C4.38800781 1.68707031 4.77601563 2.37414062 5.17578125 3.08203125 C7.70382403 7.12581702 10.97291122 10.18329183 14.375 13.5 C15.035 14.15097656 15.695 14.80195313 16.375 15.47265625 C17.66485093 16.74452122 18.95654998 18.01451513 20.25024414 19.2824707 C22.51572397 21.5062255 24.75901676 23.75158398 27 26 C27.88300781 26.88300781 28.76601563 27.76601563 29.67578125 28.67578125 C32.1171875 31.1171875 34.55859375 33.55859375 37 36 C36.01 36.33 35.02 36.66 34 37 C34 36.34 34 35.68 34 35 C33.34 35 32.68 35 32 35 C30.703125 33.64453125 30.703125 33.64453125 29.25 31.8125 C26.45941054 28.43120182 23.37707249 25.80225164 20 23 C19.195625 22.030625 18.39125 21.06125 17.5625 20.0625 C15.03601675 17.04304441 12.42419462 14.7309177 9.35546875 12.296875 C8.90816406 11.86890625 8.46085937 11.4409375 8 11 C8 10.34 8 9.68 8 9 C7.34 9 6.68 9 6 9 C6 8.34 6 7.68 6 7 C5.01 6.67 4.02 6.34 3 6 C2.3125 3.9375 2.3125 3.9375 2 2 C1.34 2 0.68 2 0 2 C0 1.34 0 0.68 0 0 Z " fill="#11656F" transform="translate(386,367)"/>
<path d="M0 0 C2.475 0.99 2.475 0.99 5 2 C5 2.66 5 3.32 5 4 C5.66 4 6.32 4 7 4 C8.56958193 5.67721041 9.9480525 7.46794114 11.3671875 9.2734375 C13.11402358 11.12057039 14.67886222 12.00522667 17 13 C17 14.32 17 15.64 17 17 C17.99 17.33 18.98 17.66 20 18 C20.33 18.99 20.66 19.98 21 21 C21.9590625 21.2165625 21.9590625 21.2165625 22.9375 21.4375 C23.618125 21.623125 24.29875 21.80875 25 22 C25.29777344 22.60457031 25.59554688 23.20914062 25.90234375 23.83203125 C27.15068311 26.29761255 28.49419575 27.51378913 30.625 29.25 C31.25664062 29.77078125 31.88828125 30.2915625 32.5390625 30.828125 C33.02117187 31.21484375 33.50328125 31.6015625 34 32 C33.505 32.99 33.505 32.99 33 34 C30.60275688 31.77234548 28.20746553 29.54260279 25.8125 27.3125 C25.13896484 26.68666016 24.46542969 26.06082031 23.77148438 25.41601562 C18.45033643 20.45826315 13.30087614 15.4131491 8.4375 10 C7.69371094 9.175 6.94992187 8.35 6.18359375 7.5 C4.04715986 5.0539934 2.00905787 2.5511846 0 0 Z " fill="#0F666A" transform="translate(359,375)"/>
<path d="M0 0 C5.92636612 4.89028812 11.38872562 10.20252718 16.81762695 15.63232422 C18.32160946 17.13409608 19.83345342 18.62765252 21.34570312 20.12109375 C22.31038391 21.08284402 23.27459384 22.04506686 24.23828125 23.0078125 C25.10493408 23.87035645 25.97158691 24.73290039 26.86450195 25.62158203 C28.74680148 27.71799932 29.9266483 29.42052359 31 32 C30.01 32 29.02 32 28 32 C26.65668346 30.00669158 25.32405988 28.00615134 24 26 C22.68252676 25.30251417 21.35085807 24.63040043 20 24 C19.31513275 22.67592331 18.65129797 21.34090759 18 20 C16.36346469 18.30373713 14.68958864 16.64342502 13 15 C10.72441842 12.77563181 8.45524616 10.54485213 6.1875 8.3125 C5.59001953 7.73177734 4.99253906 7.15105469 4.37695312 6.55273438 C2.87985327 5.07274424 1.43511269 3.54017218 0 2 C0 1.34 0 0.68 0 0 Z " fill="#117985" transform="translate(529,511)"/>
<path d="M0 0 C4.2107125 1.63355352 6.98539535 4.76223005 10.0625 7.9375 C10.59166016 8.47568359 11.12082031 9.01386719 11.66601562 9.56835938 C13.1142685 11.04205208 14.55734739 12.52082454 16 14 C16.99868795 15.00131033 17.99834209 16.00166067 19 17 C21.39073445 13.17482487 21.55966552 9.40334476 22 5 C22.33 5 22.66 5 23 5 C23 10.61 23 16.22 23 22 C19.2513916 20.1256958 17.35258984 18.59842997 14.453125 15.68359375 C13.60878906 14.83732422 12.76445313 13.99105469 11.89453125 13.11914062 C11.02183594 12.23419922 10.14914062 11.34925781 9.25 10.4375 C8.36183594 9.54869141 7.47367188 8.65988281 6.55859375 7.74414062 C0 1.14021097 0 1.14021097 0 0 Z " fill="#10747F" transform="translate(562,491)"/>
<path d="M0 0 C6.13011366 5.04321408 11.74781541 10.56163728 17.35473633 16.16943359 C18.95311913 17.76559744 20.55938146 19.35355314 22.16601562 20.94140625 C23.18277887 21.95524079 24.19907272 22.96954635 25.21484375 23.984375 C26.13386475 24.89928711 27.05288574 25.81419922 27.99975586 26.75683594 C30 29 30 29 30 31 C29.34 31 28.68 31 28 31 C28 30.34 28 29.68 28 29 C27.34 29 26.68 29 26 29 C26 28.34 26 27.68 26 27 C25.4121875 26.75121094 24.824375 26.50242187 24.21875 26.24609375 C21.69011407 24.82596195 20.33226637 23.29869782 18.5 21.0625 C16.19331478 18.25778047 13.94643455 16.11925928 11 14 C9 12 9 12 7 9.4375 C5.23362558 6.94690328 5.23362558 6.94690328 3 6 C3 5.34 3 4.68 3 4 C2.34 4 1.68 4 1 4 C0.67 2.68 0.34 1.36 0 0 Z " fill="#106C75" transform="translate(423,404)"/>
<path d="M0 0 C0.33 0 0.66 0 1 0 C1 13.86 1 27.72 1 42 C-2.76687864 40.11656068 -3.79421646 39.30867531 -6 36 C-5.360625 35.855625 -4.72125 35.71125 -4.0625 35.5625 C-2.02454854 35.18992819 -2.02454854 35.18992819 -1 34 C-0.84011509 31.48119483 -0.74065775 28.98657734 -0.68359375 26.46484375 C-0.66281265 25.71159317 -0.64203156 24.95834259 -0.62062073 24.18226624 C-0.55504575 21.7674401 -0.49620379 19.35250202 -0.4375 16.9375 C-0.3943223 15.30402471 -0.35070827 13.6705609 -0.30664062 12.03710938 C-0.19935638 8.02485536 -0.09811179 4.01248836 0 0 Z " fill="#15DBDE" transform="translate(391,640)"/>
<path d="M0 0 C1.65 0 3.3 0 5 0 C5 3.96 5 7.92 5 12 C4.67 12 4.34 12 4 12 C4 8.37 4 4.74 4 1 C-6.39420133 9.6704711 -6.39420133 9.6704711 -15 20 C-15.66 19.67 -16.32 19.34 -17 19 C-16.505 17.515 -16.505 17.515 -16 16 C-15.34 16 -14.68 16 -14 16 C-14 15.34 -14 14.68 -14 14 C-13.34 14 -12.68 14 -12 14 C-12 13.34 -12 12.68 -12 12 C-11.34 12 -10.68 12 -10 12 C-9.34 10.68 -8.68 9.36 -8 8 C-7.34 8 -6.68 8 -6 8 C-6 7.34 -6 6.68 -6 6 C-5.34 6 -4.68 6 -4 6 C-4 5.34 -4 4.68 -4 4 C-3.34 4 -2.68 4 -2 4 C-2 3.34 -2 2.68 -2 2 C-1.34 2 -0.68 2 0 2 C0 1.34 0 0.68 0 0 Z " fill="#0D4A4E" transform="translate(619,361)"/>
<path d="M0 0 C2 0 2 0 4.125 1.875 C6 4 6 4 6 6 C6.66 6 7.32 6 8 6 C8 6.66 8 7.32 8 8 C8.66 8 9.32 8 10 8 C11.3671875 9.42578125 11.3671875 9.42578125 12.875 11.3125 C15.06613512 13.97623289 17.21020719 15.96130525 20 18 C20 18.66 20 19.32 20 20 C20.99 20.33 21.98 20.66 23 21 C22.67 21.99 22.34 22.98 22 24 C18.86050859 20.90984779 15.72756243 17.81325304 12.60058594 14.71044922 C11.5353174 13.65525491 10.46826303 12.60186036 9.39941406 11.55029297 C7.86573784 10.04080273 6.33854432 8.52501301 4.8125 7.0078125 C3.89082031 6.09660645 2.96914063 5.18540039 2.01953125 4.24658203 C0 2 0 2 0 0 Z " fill="#0D575B" transform="translate(639,657)"/>
<path d="M0 0 C0.99 0.33 1.98 0.66 3 1 C2.67 1.66 2.34 2.32 2 3 C1.01 3 0.02 3 -1 3 C-1.309375 3.61875 -1.61875 4.2375 -1.9375 4.875 C-2.625 6.25 -3.3125 7.625 -4 9 C-4.66 9 -5.32 9 -6 9 C-6 9.66 -6 10.32 -6 11 C-6.66 11 -7.32 11 -8 11 C-8 11.66 -8 12.32 -8 13 C-8.66 13 -9.32 13 -10 13 C-10 13.66 -10 14.32 -10 15 C-10.66 15 -11.32 15 -12 15 C-12 15.66 -12 16.32 -12 17 C-13.32 16.67 -14.64 16.34 -16 16 C-15.38125 15.7525 -14.7625 15.505 -14.125 15.25 C-11.89586162 14.20964543 -11.89586162 14.20964543 -11.1875 12.25 C-9.57219823 9.18942822 -7.34766492 7.15926325 -4.875 4.75 C-3.96492188 3.85796875 -3.05484375 2.9659375 -2.1171875 2.046875 C-1.41851562 1.37140625 -0.71984375 0.6959375 0 0 Z " fill="#0D4F53" transform="translate(452,643)"/>
<path d="M0 0 C5.66129431 4.69766975 10.85228904 9.74723372 16 15 C16.33 12.69 16.66 10.38 17 8 C17.33 8 17.66 8 18 8 C18 10.97 18 13.94 18 17 C14.20358911 16.05089728 13.04637301 15.5063388 10.25 13.0625 C9.63640625 12.53785156 9.0228125 12.01320313 8.390625 11.47265625 C7 10 7 10 7 8 C6.34 8 5.68 8 5 8 C5 7.34 5 6.68 5 6 C4.34 6 3.68 6 3 6 C3 5.34 3 4.68 3 4 C2.01 3.67 1.02 3.34 0 3 C0 2.01 0 1.02 0 0 Z " fill="#106268" transform="translate(606,589)"/>
<path d="M0 0 C5.56502059 2.47334248 9.4223584 6.23738649 13.125 11 C14.11886719 12.2684375 14.11886719 12.2684375 15.1328125 13.5625 C16.76897878 15.69841581 18.39206852 17.84277516 20 20 C15.86360664 18.40907948 12.76786752 15.39525082 10 12 C10 11.34 10 10.68 10 10 C9.34 10 8.68 10 8 10 C6.30859375 8.3203125 6.30859375 8.3203125 4.4375 6.125 C3.50744141 5.04605469 3.50744141 5.04605469 2.55859375 3.9453125 C1 2 1 2 0 0 Z " fill="#134E56" transform="translate(647,632)"/>
<path d="M0 0 C2.475 0.99 2.475 0.99 5 2 C5 2.66 5 3.32 5 4 C5.66 4 6.32 4 7 4 C8.56958193 5.67721041 9.9480525 7.46794114 11.3671875 9.2734375 C13.11402358 11.12057039 14.67886222 12.00522667 17 13 C16.67 14.32 16.34 15.64 16 17 C15.29488281 16.29359375 14.58976562 15.5871875 13.86328125 14.859375 C11.95076988 12.94618902 10.03091117 11.04079234 8.10546875 9.140625 C7.13280027 8.17709568 6.16014408 7.21355395 5.1875 6.25 C4.68541016 5.75628906 4.18332031 5.26257813 3.66601562 4.75390625 C2.4250615 3.52139399 1.20996878 2.26294465 0 1 C0 0.67 0 0.34 0 0 Z " fill="#0D4C4F" transform="translate(359,375)"/>
<path d="M0 0 C0.33 0 0.66 0 1 0 C1.33 4.95 1.66 9.9 2 15 C2.99 13.68 3.98 12.36 5 11 C5.66 11 6.32 11 7 11 C7.33 10.01 7.66 9.02 8 8 C8.33 8.66 8.66 9.32 9 10 C8.67 10.66 8.34 11.32 8 12 C7.34 12 6.68 12 6 12 C5.67 13.32 5.34 14.64 5 16 C3.35 16.33 1.7 16.66 0 17 C0 11.39 0 5.78 0 0 Z " fill="#0C4F52" transform="translate(416,663)"/>
<path d="M0 0 C3.90285767 1.58667578 6.33520982 4.13350481 9.25 7.125 C10.14203125 8.03507813 11.0340625 8.94515625 11.953125 9.8828125 C12.62859375 10.58148437 13.3040625 11.28015625 14 12 C13.01 12.495 13.01 12.495 12 13 C7.96189555 11.65396518 6.52704924 9.34663277 4 6 C4 5.34 4 4.68 4 4 C3.34 4 2.68 4 2 4 C2 3.34 2 2.68 2 2 C1.34 2 0.68 2 0 2 C0 1.34 0 0.68 0 0 Z " fill="#13656D" transform="translate(356,648)"/>
<path d="M0 0 C5.29012124 4.40843437 10.18808428 9.07559794 15 14 C14.67 14.99 14.34 15.98 14 17 C11.84658215 14.92348993 9.89750479 12.86774812 8.0625 10.5 C6.06920247 7.8933297 6.06920247 7.8933297 3.3125 5.9375 C0.7911426 3.82501137 0.58414372 3.08761681 0 0 Z " fill="#0F6B76" transform="translate(530,601)"/>
<path d="M0 0 C1.8125 0.1875 1.8125 0.1875 4 1 C5.02137457 2.65365406 6.01612294 4.32376502 7 6 C9.24278423 8.4288448 11.60442751 10.72256533 14 13 C13.67 13.99 13.34 14.98 13 16 C11.29115995 14.37660195 9.62553283 12.70680947 8 11 C8 10.34 8 9.68 8 9 C7.34 9 6.68 9 6 9 C6 8.34 6 7.68 6 7 C5.01 6.67 4.02 6.34 3 6 C2.3125 3.9375 2.3125 3.9375 2 2 C1.34 2 0.68 2 0 2 C0 1.34 0 0.68 0 0 Z " fill="#105E66" transform="translate(386,367)"/>
<path d="M0 0 C0.66 0 1.32 0 2 0 C3.36639342 1.6396721 4.6949419 3.31110128 6 5 C8.48656275 7.71967801 10.6035408 9.54437463 14 11 C14 11.99 14 12.98 14 14 C10.14406926 12.41438362 7.66783709 9.93490046 4.75 7 C3.85796875 6.113125 2.9659375 5.22625 2.046875 4.3125 C0 2 0 2 0 0 Z " fill="#0E5B61" transform="translate(609,627)"/>
<path d="M0 0 C1.1725131 0.95117134 2.33787015 1.91117009 3.5 2.875 C4.47453125 3.67550781 4.47453125 3.67550781 5.46875 4.4921875 C5.9740625 4.98976563 6.479375 5.48734375 7 6 C7 6.66 7 7.32 7 8 C7.66 8 8.32 8 9 8 C9 8.66 9 9.32 9 10 C10.32 10.66 11.64 11.32 13 12 C12.34 12.66 11.68 13.32 11 14 C9.15730989 12.23807715 7.32609243 10.46648194 5.5 8.6875 C4.97535156 8.18798828 4.45070313 7.68847656 3.91015625 7.17382812 C2.5489154 5.83910496 1.26860484 4.4230616 0 3 C0 2.01 0 1.02 0 0 Z " fill="#0E545A" transform="translate(548,564)"/>
<path d="M0 0 C3.66786393 1.50349377 5.68910393 3.63728792 8.25 6.625 C8.95640625 7.44226563 9.6628125 8.25953125 10.390625 9.1015625 C10.92171875 9.72804688 11.4528125 10.35453125 12 11 C11.01 11.33 10.02 11.66 9 12 C8.4225 11.05125 7.845 10.1025 7.25 9.125 C5.04527454 6.0628813 4.18385451 5.53703321 1 4 C0.25 1.875 0.25 1.875 0 0 Z " fill="#0F6B74" transform="translate(548,531)"/>
<path d="M0 0 C0.33 0.99 0.66 1.98 1 3 C-1.53790306 6.45436806 -3.43145646 8.62097097 -7 11 C-7.99 10.67 -8.98 10.34 -10 10 C-8.625 8.5 -8.625 8.5 -7 7 C-6.34 7 -5.68 7 -5 7 C-5 6.34 -5 5.68 -5 5 C-4.34 5 -3.68 5 -3 5 C-3 4.34 -3 3.68 -3 3 C-2.34 3 -1.68 3 -1 3 C-0.67 2.01 -0.34 1.02 0 0 Z " fill="#10666A" transform="translate(435,660)"/>
<path d="M0 0 C3.59905908 0.55550695 4.99909799 1.74887248 7.25 4.5625 C8.03117188 5.52349609 8.03117188 5.52349609 8.828125 6.50390625 C9.21484375 6.99761719 9.6015625 7.49132812 10 8 C5.67008153 8 4.08622163 5.88494631 1 3 C0.67 2.01 0.34 1.02 0 0 Z " fill="#145960" transform="translate(672,657)"/>
<path d="M0 0 C4.88049925 3.9419417 9.0580583 8.11950075 13 13 C7.09152792 10.04576396 3.40917627 7.93449202 0 2 C0 1.34 0 0.68 0 0 Z " fill="#0F7883" transform="translate(545,616)"/>
<path d="M0 0 C0.99 0.33 1.98 0.66 3 1 C2.51789062 1.47050781 2.03578125 1.94101562 1.5390625 2.42578125 C0.90742187 3.04839844 0.27578125 3.67101562 -0.375 4.3125 C-1.00148438 4.92738281 -1.62796875 5.54226563 -2.2734375 6.17578125 C-4.18086607 8.08812528 -4.18086607 8.08812528 -6 11 C-6.66 10.67 -7.32 10.34 -8 10 C-7.67 9.01 -7.34 8.02 -7 7 C-6.34 7 -5.68 7 -5 7 C-5 6.34 -5 5.68 -5 5 C-4.34 5 -3.68 5 -3 5 C-3 4.34 -3 3.68 -3 3 C-2.34 3 -1.68 3 -1 3 C-0.67 2.01 -0.34 1.02 0 0 Z " fill="#106067" transform="translate(610,370)"/>
<path d="M0 0 C3.21524305 1.40844718 5.32183868 3.10344786 7.75 5.625 C8.67039062 6.57246094 8.67039062 6.57246094 9.609375 7.5390625 C10.29773438 8.26222656 10.29773438 8.26222656 11 9 C10.01 9.33 9.02 9.66 8 10 C8 9.34 8 8.68 8 8 C7.34 8 6.68 8 6 8 C6 7.34 6 6.68 6 6 C4.68 5.34 3.36 4.68 2 4 C2 3.34 2 2.68 2 2 C1.34 2 0.68 2 0 2 C0 1.34 0 0.68 0 0 Z " fill="#0F535A" transform="translate(595,579)"/>
<path d="M0 0 C0.33 0 0.66 0 1 0 C1 1.98 1 3.96 1 6 C-0.875 5.6875 -0.875 5.6875 -3 5 C-3.66 4.01 -4.32 3.02 -5 2 C-4.360625 1.855625 -3.72125 1.71125 -3.0625 1.5625 C-1.02454854 1.18992819 -1.02454854 1.18992819 0 0 Z " fill="#0DE6ED" transform="translate(390,674)"/>
<path d="M0 0 C1.14926266 0.95421808 2.29430541 1.91352045 3.4375 2.875 C4.07558594 3.40867187 4.71367187 3.94234375 5.37109375 4.4921875 C7 6 7 6 8 8 C4.82461668 7.65978036 3.97723135 6.97533396 1.75 4.5625 C0 2 0 2 0 0 Z " fill="#125054" transform="translate(378,359)"/>
<path d="M0 0 C0.99 0.33 1.98 0.66 3 1 C2.67 1.66 2.34 2.32 2 3 C1.01 3 0.02 3 -1 3 C-1 3.66 -1 4.32 -1 5 C-2.65 5.66 -4.3 6.32 -6 7 C-4.02 4.69 -2.04 2.38 0 0 Z " fill="#0F6165" transform="translate(452,643)"/>
<path d="M0 0 C3.78611227 0.54087318 5.55400767 2.11722332 8 5 C8 5.66 8 6.32 8 7 C7.34 7 6.68 7 6 7 C6 6.34 6 5.68 6 5 C5.34 5 4.68 5 4 5 C4 4.34 4 3.68 4 3 C2.68 2.34 1.36 1.68 0 1 C0 0.67 0 0.34 0 0 Z " fill="#11616A" transform="translate(445,428)"/>
</svg>
